<svg xmlns="http://www.w3.org/2000/svg" viewBox="0 0 385.2 114.6" class="svg is-logo"><path class="path" d="M32.1 4.1C21.4 4.6 10.7 5.2 0 5.9c.9 15 1.8 29.9 2.8 44.9 4.2-.3 8.4-.5 12.7-.8-.3-5.6-.6-11.1-1-16.7l15.6-.9c-.2-3.3-.3-6.7-.5-10l-15.6.9c-.1-2.5-.3-5-.4-7.5 6.4-.4 12.8-.7 19.2-1-.3-3.6-.5-7.1-.7-10.7zM74.7 17.8c-.3-7.7-7.2-15.3-16.4-14.9-7.2.3-14.3.6-21.5 1 .7 15 1.5 29.9 2.2 44.9 4.2-.2 8.4-.4 12.7-.6l-.6-13.8c1.6-.1 3.2-.1 4.8-.2 3.1 4.5 6.3 8.9 9.4 13.4 4.8-.2 9.5-.4 14.3-.6-3.7-5.4-7.4-10.8-11.1-16.1 4.1-3 6.4-7.9 6.2-13.1zm-16 5.4c-2.7.1-5.4.2-8.1.4-.1-3.2-.3-6.4-.4-9.6l7.8-.3c1.6-.1 3.6 1.6 3.7 4.7.1 2.9-1.4 4.8-3 4.8zM95 1.5c-4.3.1-8.6.3-12.9.4.5 15 1.1 30 1.6 44.9 4.2-.1 8.5-.3 12.7-.4-.5-15-1-29.9-1.4-44.9zM135.8.5c-10.9.2-21.9.4-32.8.8.4 15 .8 30 1.3 44.9 11-.3 21.9-.6 32.9-.8-.1-3.6-.1-7.2-.2-10.8-6.8.1-13.5.3-20.3.4-.1-2.4-.1-4.7-.2-7.1 5.6-.1 11.3-.3 16.9-.4-.1-3.3-.1-6.7-.2-10-5.6.1-11.3.2-16.9.4-.1-2.1-.1-4.2-.2-6.3 6.6-.2 13.2-.3 19.9-.4-.1-3.5-.1-7.1-.2-10.7zM142.4.4c.2 15 .5 30 .7 45 4.2-.1 8.5-.1 12.7-.2l-.3-22.1L174.1 45h10.1c0-15-.1-30-.1-45-4.3 0-8.6 0-12.9.1 0 7.6.1 15.2.1 22.9-6.3-7.6-12.6-15.1-19-22.7-3.2 0-6.5 0-9.9.1zM233.5 22.7c.2-12.4-7.7-22.6-23.3-22.7-6 0-12-.1-18-.1v45c5.9 0 11.8 0 17.8.1 13.9.1 23.3-8.7 23.5-22.3zM205 10.8h5.1c6.6 0 10.5 4.8 10.4 11.7-.1 6.8-3.9 11.7-10.6 11.7h-5.1c.1-7.8.2-15.6.2-23.4zM255.8 35.1c-7.1-.2-14.8-5.2-14.8-5.2-1.9 3.6-3.8 7.2-5.6 10.7 5.5 3.2 13.3 5.5 20 5.6 8.6.2 17.6-3.1 17.9-13.9.2-8.4-5.1-11.5-13.7-14.3-5.3-1.8-8.6-2.3-8.6-4.7 0-1.6 1.6-2.2 3.8-2.1 5.6.1 12.3 4.4 12.3 4.4 1.9-3.4 3.9-6.7 5.8-10.1-4.2-2.1-10.6-5.1-17.4-5.3-9.2-.2-17.6 4.9-17.7 14.9-.1 6.6 3.5 10 11.6 12.8 5.5 1.9 10.3 2.6 10.2 5.2-.1 1.3-1.1 2-3.8 2zM279.8 1.3c-.4 15-.9 30-1.3 44.9 4.2.1 8.5.3 12.7.4.2-5.9.4-11.7.6-17.6 5.2.2 10.4.4 15.6.5-.2 5.9-.4 11.7-.7 17.6 4.2.2 8.5.3 12.7.5.6-15 1.3-30 1.9-44.9-4.3-.2-8.6-.4-12.9-.5-.2 5.5-.4 11.1-.6 16.6l-15.6-.6c.2-5.5.4-11.1.5-16.6l-12.9-.3zM342.2 3.7l-12.9-.6c-.7 15-1.3 29.9-2 44.9 4.2.2 8.5.4 12.7.6.7-15 1.4-30 2.2-44.9zM370.4 5.2c-6.7-.4-13.4-.8-20.2-1.1-.8 15-1.5 29.9-2.3 44.9 4.2.2 8.4.4 12.7.7.3-4.6.5-9.2.8-13.8 2.5.1 5.1.3 7.6.4 9.1.5 15.7-6.7 16.2-14.6.4-7.7-5.7-16-14.8-16.5zm1.8 15.7c-.2 3.6-1.9 4.7-3.5 4.6-2.2-.1-4.5-.3-6.7-.4.2-3.2.4-6.4.5-9.6 2.1.1 4.3.2 6.4.4 1.6.1 3.5 1.3 3.3 5zM21 113.6c-.6-9.7-1.1-19.5-1.7-29.2 3.5 6.7 7.1 13.3 10.5 20 2.7-.1 5.5-.3 8.2-.4l8.4-21c.5 9.7.9 19.5 1.4 29.2 5.1-.2 10.2-.5 15.3-.7L60.7 56c-5.7.2-11.3.5-17 .8-3.7 8.9-7.4 17.8-11 26.7-4.5-8.5-9-17-13.6-25.4-5.7.3-11.4.7-17.1 1 1.1 18.5 2.3 37 3.4 55.5 5.4-.4 10.5-.7 15.6-1zM83.7 110.7c1-3.7 1.9-7.3 2.9-11 5-.2 10-.3 14.9-.5 1.2 3.6 2.5 7.2 3.7 10.8 5.4-.2 10.8-.3 16.2-.4-7.4-18.4-14.8-36.7-22.5-55-4.2.1-8.4.3-12.7.4-6.4 18.8-12.8 37.5-19 56.3 5.7-.2 11.1-.4 16.5-.6zm9.5-40c1.9 6.2 3.7 12.3 5.6 18.5l-10.2.3c1.5-6.3 3.1-12.5 4.6-18.8zM125.7 109.5c7.2-.2 14.3-.3 21.5-.4 17-.2 28.1-11.3 28-28.1-.1-15.3-9.9-27.7-28.8-27.4-7.3.1-14.6.2-21.9.4l1.2 55.5zm20.9-42.6c8-.1 12.8 5.6 12.9 14.2.1 8.4-4.4 14.6-12.5 14.7-2.1 0-4.1.1-6.2.1-.2-9.7-.3-19.3-.5-29h6.3zM182.1 108.8h15.3c0-9.1 0-18.2.1-27.3 7.5 9.1 14.8 18.3 22.1 27.4 4.1 0 8.1.1 12.2.1.3-18.5.5-37 .8-55.6-5.2-.1-10.4-.1-15.6-.2-.1 9.4-.2 18.8-.2 28.3-7.5-9.5-15-18.9-22.6-28.4H182c0 18.7.1 37.2.1 55.7zM241.5 109.2c13.3.2 26.6.5 39.8.9.1-4.4.3-8.9.4-13.3-8.2-.2-16.4-.5-24.6-.6.1-2.9.1-5.8.2-8.8 6.8.1 13.6.3 20.5.5.1-4.1.2-8.2.4-12.4-6.8-.2-13.7-.4-20.5-.5.1-2.6.1-5.2.2-7.8l24.1.6c.1-4.4.3-8.9.4-13.3-13.3-.4-26.6-.7-39.8-.9-.5 18.6-.8 37.1-1.1 55.6zM287.9 73.1c-.3 8.1 4 12.4 13.8 16.1 6.7 2.5 12.4 3.5 12.3 6.7-.1 1.5-1.3 2.4-4.6 2.2-8.6-.3-17.8-6.8-17.8-6.8-2.4 4.4-4.7 8.8-7.1 13.2 6.6 4.1 16 7 24.1 7.4 10.4.4 21.4-3.4 22.1-16.8.5-10.4-5.9-14.3-16.2-17.9-6.4-2.3-10.4-3.1-10.3-6 .1-2 1.9-2.7 4.6-2.6 6.8.3 14.8 5.7 14.8 5.7 2.4-4.1 4.8-8.2 7.3-12.3-5-2.7-12.8-6.6-21-6.9-11.4-.4-21.7 5.7-22 18zM357.9 70.9c6.8.4 14.7 5.9 14.7 5.9 2.5-4.1 5-8.1 7.5-12.2-5-2.8-12.7-6.8-20.9-7.3-11.2-.6-21.6 5.4-22.1 17.7-.4 8.1 3.8 12.5 13.5 16.3 6.6 2.6 12.3 3.7 12.2 6.9-.1 1.5-1.3 2.4-4.6 2.2-8.6-.5-17.7-7-17.7-7-2.4 4.3-4.9 8.7-7.3 13 6.5 4.2 15.9 7.3 24 7.7 10.4.6 21.5-3 22.3-16.4.7-10.4-5.7-14.4-15.9-18.2-6.4-2.4-10.4-3.2-10.2-6.1-.1-2 1.8-2.6 4.5-2.5z"/></svg>
