<svg xmlns="http://www.w3.org/2000/svg" viewBox="0 0 190.93 16" class="svg is-logo"><path d="M15.32 3.45l-.05-.35h.35v-.14a.61.61 0 0 0-.05-.12 3 3 0 0 1-.11-.32.65.65 0 0 1 0-.34 1.23 1.23 0 0 1-.48-.67.45.45 0 0 0-.13-.17l-.22-.15h-.06a.39.39 0 0 1-.11-.08.44.44 0 0 1-.14-.31l-.15-.04-.09-.05-.44-.2a1.41 1.41 0 0 0-.44-.08.69.69 0 0 0-.4.11 3.82 3.82 0 0 1-.86 1.32 14.67 14.67 0 0 1-1.1 1c-.2.17-.4.33-.58.5s-.39.35-.61.56a1.15 1.15 0 0 0-.29.08 3.24 3.24 0 0 0-.33.2l-.47.29a1.1 1.1 0 0 1-.56.16 1 1 0 0 1-.49-.13l-.12-.12a1 1 0 0 1 0-.33 2.13 2.13 0 0 1 0-.27 1.8 1.8 0 0 0 0-.27.35.35 0 0 0-.08-.21v-.17a1.16 1.16 0 0 0 0-.93 6.5 6.5 0 0 0-.53-.89 1.4 1.4 0 0 1-.12-.18L6.55 1a1.14 1.14 0 0 1-.33-.11l-.36-.1a.21.21 0 0 1-.11 0A.22.22 0 0 1 5.64.6V.38a1 1 0 0 0-.3-.21A1.69 1.69 0 0 0 5 0a2.26 2.26 0 0 0-.54.26 2.23 2.23 0 0 0-.4.35 2.41 2.41 0 0 0-.33.44l-.33.53-.22.42c-.08.14-.16.28-.26.43a6.42 6.42 0 0 0-.48.85c-.19.36-.38.76-.58 1.21s-.4.89-.6 1.35L.72 7.05c-.16.37-.29.69-.39.95s-.15.37-.15.38A2.32 2.32 0 0 0 0 9.3a4.76 4.76 0 0 0 .1 1.06 4.62 4.62 0 0 0 .29 1 2.62 2.62 0 0 0 .46.73 4.21 4.21 0 0 0 .49.05.77.77 0 0 0 .27 0 .54.54 0 0 0 .23-.14 1.06 1.06 0 0 0 .23-.32 4.6 4.6 0 0 0 .28-.55.43.43 0 0 0 0-.24v-.18a1.17 1.17 0 0 1 0-.2.94.94 0 0 1 .14-.19l.16-.17.24-.15A.34.34 0 0 0 3 9.84a.83.83 0 0 1 0-.15.2.2 0 0 1 0-.15A1.33 1.33 0 0 1 3.18 9a4.86 4.86 0 0 1 .37-.4 1.38 1.38 0 0 1 .06-.55c.06-.21.13-.42.2-.62a5.46 5.46 0 0 1 .24-.53l.17-.31.16-.25.14.29a2.57 2.57 0 0 0 2.39 1.65 3.86 3.86 0 0 0 1.27-.22 9 9 0 0 0 1.29-.53c.43-.22.84-.46 1.23-.71s.76-.51 1.1-.76c0-.08 0-.13.1-.14h.3v.17a.25.25 0 0 1-.1.24 12.25 12.25 0 0 0-.57 3.47 2.23 2.23 0 0 0 .78 1.91.89.89 0 0 0 .36-.07 2.91 2.91 0 0 0 .35-.18l.27-.14a2.39 2.39 0 0 1 .32-.11.64.64 0 0 1 .08-.19c0-.07.06-.13.09-.21.26-.58.51-1.2.74-1.86a5.84 5.84 0 0 0 .27-2.21 2.88 2.88 0 0 0 .21-.45 3 3 0 0 0 .1-.45 4.12 4.12 0 0 0 0-.51v-.76a2.26 2.26 0 0 0 .2-.52 1.4 1.4 0 0 0 .02-.6zM24.82 7.61l-.17-.15a.47.47 0 0 0-.3-.08.4.4 0 0 1-.16-.16l-.06-.16h-.37a.55.55 0 0 0-.17 0h-.16a4.73 4.73 0 0 1-.2-.67c-.05-.24-.11-.49-.16-.74S23 5.37 23 5.2a5.18 5.18 0 0 0-.14-.53 5.19 5.19 0 0 0 0-.6l-.09-.54a1.18 1.18 0 0 1 0-.25 2 2 0 0 0-.12-.38.88.88 0 0 0-.41-.24l-.54-.14a1.71 1.71 0 0 0-.3-.09l-.22-.09-.21-.13-.15.23a8.93 8.93 0 0 1-.69.89 2.41 2.41 0 0 1-.77.58h-.24a.32.32 0 0 0-.14 0h-.11l-.26.11a4.59 4.59 0 0 0-.34.52c-.08.17-.17.34-.26.52l-.22.44c-.07.14-.17.3-.28.48a.48.48 0 0 0 0 .15.3.3 0 0 0 0 .1l-.24.51c-.08.17-.16.34-.25.51-.25.52-.5 1-.73 1.52s-.47 1-.68 1.55v.27l-.18.14.21.19a.19.19 0 0 1 0 .09.53.53 0 0 0 0 .16v.18a.69.69 0 0 0 .16.28 2.11 2.11 0 0 1 .22.17 2.56 2.56 0 0 0 .27.23h.32l.25-.05.14.02v-.17a.2.2 0 0 1 .08 0l.09-.06.19-.1a.8.8 0 0 0 .17-.15l.07-.17a1 1 0 0 1 0-.39 3.24 3.24 0 0 1 .13-.41c0-.08.07-.17.1-.27S18 10 18 9.94l.06-.06.06-.05.08-.27a.18.18 0 0 1 0-.09.13.13 0 0 1 .05-.07h.15l.07-.16a1.4 1.4 0 0 1 .14-.39.76.76 0 0 0 .09.28.43.43 0 0 0 0 .34 2.46 2.46 0 0 0 .17.22l.07.05a1.32 1.32 0 0 1 .06.2h.63a3.16 3.16 0 0 0 .64-.06 3.75 3.75 0 0 0 .58-.13l.43-.11a1.44 1.44 0 0 1 .54 0 .9.9 0 0 1-.11.58 1 1 0 0 1-.53.29l-.43.11.27.3.08.09a.47.47 0 0 0 .1.1 1.08 1.08 0 0 1 .19.2.26.26 0 0 1 0 .2l-.06.2.19.08h.07l.09.06.15.1a.72.72 0 0 0 .28.1 1.55 1.55 0 0 0 .63-.16 2.17 2.17 0 0 0 .55-.36 2.22 2.22 0 0 0 .42-.49 2.32 2.32 0 0 0 .28-.54v-.07a2.81 2.81 0 0 0 0-.58c0-.19-.05-.38-.08-.56a.58.58 0 0 1 0-.18A1.24 1.24 0 0 0 24 9a2.62 2.62 0 0 0 .65-.43 2.28 2.28 0 0 0 .42-.57l.12-.24-.19-.05a.5.5 0 0 1-.18-.1zm-4.46.17l-.87.07H19.15l.17-.28.19-.29a8.26 8.26 0 0 1 .5-.77 6.63 6.63 0 0 1 .61-.75l.09-.15q.15.5.27 1t.24 1c-.32.1-.6.14-.86.17zM32.84 3.15a.72.72 0 0 0-.08-.24l-.14-.09-.42-.27a.8.8 0 0 1-.27-.32L31.87 2h-.22a2.13 2.13 0 0 0-1.44 1l-.21.17a1.43 1.43 0 0 1-.2.23l-.25.24-.29.36v.15l-.93 1.27a.18.18 0 0 1-.07 0h-.06a.38.38 0 0 1-.16.11 1.13 1.13 0 0 0 0-.41c0-.12-.07-.24-.1-.36l-.09-.37a1.86 1.86 0 0 1-.03-.39l-.06-.19c-.05 0-.07-.12-.07-.25a.87.87 0 0 0 0-.18v-.15l-.21-.18-.11-.22a2.42 2.42 0 0 0-.33-.2l-.33-.16-.27-.15-.27-.15h-.27a.75.75 0 0 0-.29.3 1 1 0 0 0-.11.35 1.2 1.2 0 0 0 0 .38c0 .13.05.24.07.35s.06.25.08.37a.58.58 0 0 1 0 .3v.15a.55.55 0 0 0 .09.23 2.2 2.2 0 0 0 0 .36c0 .12 0 .23.07.35s.05.2.07.3a1.61 1.61 0 0 1 0 .35c.06.19.14.4.24.65a7.09 7.09 0 0 0 .35.76 2.33 2.33 0 0 1 .38.45l-.2.35c-.09.15-.21.35-.35.61s-.31.57-.38.73-.12.28-.15.36a1.16 1.16 0 0 0-.26.39l-.15.45a1.21 1.21 0 0 0-.05.18l-.06.16v.16a1.54 1.54 0 0 0 1.41 1.24l.23-.1a.58.58 0 0 0 .11-.13l.18-.17a1.28 1.28 0 0 0 .17-.22v-.16a.31.31 0 0 1 0-.09.61.61 0 0 1 .07-.1 2.15 2.15 0 0 0 .14-.26.71.71 0 0 0 .09-.28 3.65 3.65 0 0 0 .74-1.37 1.57 1.57 0 0 0 .26-.31 3.66 3.66 0 0 0 .16-.37 1.68 1.68 0 0 0 .24-.29 2.55 2.55 0 0 0 .17-.33c.05-.1.11-.19.16-.28a1.06 1.06 0 0 1 .19-.23l.08-.24a.94.94 0 0 0 .35-.23l.12-.24.11-.24a1.06 1.06 0 0 1 .25-.3 1 1 0 0 1 .06-.14.83.83 0 0 0 0-.12l.08-.08a2 2 0 0 0 .15-.2 1.46 1.46 0 0 1 .17-.28l.06-.06h.19v-.18a.83.83 0 0 1 .43-.51l.11-.13a.68.68 0 0 1 .27-.26l.26-.23a3.39 3.39 0 0 0 .31-.32 1.19 1.19 0 0 0 .31-.55l-.06-.16a.59.59 0 0 0 .02-.14zM53.89 4.13a1.63 1.63 0 0 1-.38-.45c-.1-.17-.2-.36-.29-.55S53 2.74 53 2.54a3.22 3.22 0 0 0-.3-.55 1 1 0 0 0-.48.28 1.19 1.19 0 0 0-.3.51 2 2 0 0 0-.12.64 1.88 1.88 0 0 0 .06.63.24.24 0 0 0-.16.13.4.4 0 0 1-.13.16 3.33 3.33 0 0 1 0 1.26c-.08.41-.15.83-.2 1.24a5.7 5.7 0 0 1-.72.29c-.26.08-.53.15-.8.21l-.85.18-.8.17v-.14a.11.11 0 0 1-.09-.1c0-.18.09-.39.13-.65s.1-.51.15-.79.09-.54.12-.8 0-.5.06-.7a4.56 4.56 0 0 0-.4-.51l-.36-.46a3.91 3.91 0 0 1-.34-.54 2.35 2.35 0 0 1-.24-.58.82.82 0 0 0-.23.11.27.27 0 0 1-.08-.07.55.55 0 0 1-.14-.17l-.15-.11-.39-.05h-.42a9.83 9.83 0 0 0-1.06.06l-1.08.14c-.24 0-.48.08-.72.1l-.71.08a1.18 1.18 0 0 0-.2-.17.61.61 0 0 0-.4-.07l-.16.08-.12.26-.68.07-.64.06-1.05.1h-1.7v.24l-.08.11a.43.43 0 0 0-.06.19 1.84 1.84 0 0 0 0 .44l.12.34a2 2 0 0 0 .07.19v.19l.14.19s.12.1.25.27a1 1 0 0 0 .27.1H39a.57.57 0 0 1 .25 0h.32a.81.81 0 0 0 .36-.1.32.32 0 0 0 .16 0h.66l-.07.18-.09.21-.15.34c0 .11-.11.25-.18.42l-.14.16c-.07.23-.14.46-.22.67s-.17.43-.26.64c-.15.4-.29.8-.42 1.23a4.46 4.46 0 0 0-.22 1.52.9.9 0 0 1 .11.22c0 .08.05.17.07.27s.05.23.08.35a1.17 1.17 0 0 0 .17.31v.19l.14.08.43.21a.34.34 0 0 0 .14.13l.2.08a.31.31 0 0 0 .1.12h.19a.94.94 0 0 0 .8-.3.82.82 0 0 0 .14-.72l-.14-.16-.24-.15s-.07 0-.14-.07a.32.32 0 0 0 0-.13l-.09-.11a.84.84 0 0 1 0-.3v-.17A.49.49 0 0 0 41 10a.22.22 0 0 0 .08-.2.89.89 0 0 1 0-.11 1.21 1.21 0 0 1 0-.14 1.28 1.28 0 0 0 .11-.35.26.26 0 0 0 .08-.11.44.44 0 0 1 .15-.09l.06-.18c0-.13.08-.28.14-.46a2 2 0 0 1 .29-.5 2.7 2.7 0 0 1 .16-.48c.07-.14.16-.3.26-.47s.13-.4.2-.59.15-.37.23-.55a4.12 4.12 0 0 0 .24-.55c.07-.18.15-.38.22-.61l.53-.05.61-.08.91-.12a6.41 6.41 0 0 1 .85-.06h.05c0 .33-.09.66-.1 1s-.08.83-.14 1.18h-.17a1 1 0 0 1 .05.33 1.46 1.46 0 0 1 0 .41 2.25 2.25 0 0 1-.13.42 1 1 0 0 1-.2.31 5.31 5.31 0 0 1-.09.74 2 2 0 0 1-.34.75.26.26 0 0 1 .05.18.88.88 0 0 1-.05.15C45 9.9 45 10 45 10a.48.48 0 0 0 0 .24h-.08a.19.19 0 0 0 0 .09 1.13 1.13 0 0 1 0 .15.23.23 0 0 1-.05.11 2.18 2.18 0 0 1 .18.42 1.26 1.26 0 0 0 .21.39c-.07 0-.11 0-.12.06s0 .12.06.11a.1.1 0 0 0 .06.07l.15.1a1 1 0 0 1 .17.12.25.25 0 0 1 .08.17 1.22 1.22 0 0 0 .52.16 1.07 1.07 0 0 0 .41-.07 2.53 2.53 0 0 0 .37-.18 1.52 1.52 0 0 1 .39-.16.14.14 0 0 0 0-.13l-.05-.09c.08 0 .15-.06.23-.16a3.07 3.07 0 0 0 .2-.36 2.39 2.39 0 0 0 .16-.38 1.07 1.07 0 0 0 .06-.23l.54-.3.51-.35c.25-.11.5-.21.77-.3a3.56 3.56 0 0 1 .76-.16v.19c0 .11 0 .22-.07.35a2.57 2.57 0 0 0-.06.35v.17a1.12 1.12 0 0 0 .18.68c.12.19.26.42.39.67a1 1 0 0 1 .28.13 2.2 2.2 0 0 0 .25.17l.55-.2a1.88 1.88 0 0 0 .51-.31 1.32 1.32 0 0 0 .34-.46 1.29 1.29 0 0 0 .1-.68.64.64 0 0 1-.09-.4.64.64 0 0 0 0-.36.83.83 0 0 0 .19-.26 2.92 2.92 0 0 0 .14-.31c0-.11.09-.22.13-.33a1 1 0 0 1 .17-.28 8.53 8.53 0 0 1 .22-1.2c.1-.37.19-.76.27-1.16s0-.67 0-1-.1-.64-.14-.95zM63.14 3.28a.43.43 0 0 0 0-.11 1.1 1.1 0 0 0 0-.16 2.41 2.41 0 0 1-.54-.32 1.44 1.44 0 0 1-.4-.45c0 .1 0 .13-.08.09s-.11 0-.14.09a.44.44 0 0 1-.28-.14c-.44.08-.83.14-1.19.18l-1 .14-1 .18c-.33.08-.71.18-1.13.32l-.67.14a4.43 4.43 0 0 0-.58.16 1.8 1.8 0 0 0-.5.25 1.41 1.41 0 0 0-.39.38 3.58 3.58 0 0 1 .11.53c0 .18 0 .35.08.51a2.3 2.3 0 0 0 .15.49 1.37 1.37 0 0 0 .33.45c-.08.2-.15.38-.23.55l-.21.44c-.08.16-.16.32-.23.49s-.14.35-.21.54h-.12a.12.12 0 0 1-.1.09.47.47 0 0 1-.1.41 1 1 0 0 0-.2.43 1.57 1.57 0 0 0 0 .49 5.52 5.52 0 0 0 .07.55l.09.53c0 .17.06.32.07.46a.37.37 0 0 1 .21.23.5.5 0 0 0 .17.26 1.6 1.6 0 0 0 .77.42 4.64 4.64 0 0 0 1 .13 7 7 0 0 0 1 0c.34-.05.62-.09.87-.15A.54.54 0 0 1 59 12a.38.38 0 0 0 .24 0l1.07-.19a5.26 5.26 0 0 0 .87-.22 2.12 2.12 0 0 0 .71-.42 2.28 2.28 0 0 0 .54-.8h-.13a.21.21 0 0 1 0-.13l-.11-.24a.28.28 0 0 0-.08-.15.31.31 0 0 1-.24-.06l-.18-.18-.19-.23a.48.48 0 0 0-.22-.16 4.49 4.49 0 0 1-.8.18 2.07 2.07 0 0 0-.75.23 7.09 7.09 0 0 0-.84 0l-.65.08a6.67 6.67 0 0 1-.67.06 4.36 4.36 0 0 1-.89-.07 6.47 6.47 0 0 1 .36-.8 5.09 5.09 0 0 1 .46-.71 1.48 1.48 0 0 0 .44 0 .93.93 0 0 1 .42.07.53.53 0 0 1 .35-.05.58.58 0 0 0 .36 0 .16.16 0 0 0 .1 0h.12a2.19 2.19 0 0 0 .71.01 2.92 2.92 0 0 0 .56-.22 3.55 3.55 0 0 0 .53-.32l.51-.36a.56.56 0 0 0 0-.31 1.07 1.07 0 0 0-.09-.27.4.4 0 0 1-.27-.06 1.3 1.3 0 0 1-.23-.18l-.23-.23a1.33 1.33 0 0 0-.22-.2.09.09 0 0 1 0-.09v-.1c-.44 0-.88 0-1.33.08a7.34 7.34 0 0 1-1.23 0 .49.49 0 0 1 0-.25.72.72 0 0 0 0-.28l.28-.09a.66.66 0 0 0 .25-.13 1 1 0 0 0 .48 0 .47.47 0 0 1 .37 0 3.05 3.05 0 0 1 1.05-.41l1-.19a3.54 3.54 0 0 0 .94-.28 1.86 1.86 0 0 0 .77-.74.61.61 0 0 1 0-.16zM69.78 5.63a.88.88 0 0 1 .33 0 .37.37 0 0 0 .31-.12.73.73 0 0 1 .13-.35.37.37 0 0 1 .31-.16 1 1 0 0 1 0 .46 2.11 2.11 0 0 1-.12.38c-.05.13-.09.25-.13.37a.94.94 0 0 0 0 .42 3.39 3.39 0 0 0-.2.63c0 .17-.07.33-.1.48a2.16 2.16 0 0 1-.12.45l-.22.7a.46.46 0 0 0-.17.24c0 .09-.06.19-.08.28a2.29 2.29 0 0 1-.08.28.51.51 0 0 1-.16.23s0 .1.07.16a.9.9 0 0 1 0 .19.21.21 0 0 0-.18.23v.39a1.27 1.27 0 0 0 .18.37c.07.11.09.2 0 .27a.29.29 0 0 1 .19.17.22.22 0 0 1 0 .2.55.55 0 0 1 .26.1l.13.1.11.12a.58.58 0 0 0 .15.11.19.19 0 0 1 .17-.06h.26a.42.42 0 0 0 .21-.17l.17-.25c.09.06.21.14.34.21a1.92 1.92 0 0 0 .38.19.63.63 0 0 0 .31.06c.08 0 .13-.05.14-.16a.11.11 0 0 1 .07.09.13.13 0 0 0 .07.08l.66-.13a.77.77 0 0 0 .48-.24 6.53 6.53 0 0 0 1.58-.46 15.53 15.53 0 0 0 1.46-.76l.25-.21a.63.63 0 0 0 .1-.12 1.45 1.45 0 0 1 .16-.21l.39-.51a.48.48 0 0 0 0-.17.18.18 0 0 0-.11-.16.2.2 0 0 0 .06-.21 1 1 0 0 0-.07-.26 2.69 2.69 0 0 0-.13-.32 2.69 2.69 0 0 1-.13-.32l-.09-.06a.17.17 0 0 1-.12-.07 1.81 1.81 0 0 0-.32-.41l-.4-.33c-.15-.1-.28-.21-.42-.31a2.16 2.16 0 0 1-.37-.37 4.81 4.81 0 0 1 .54-.57 5.68 5.68 0 0 0 .53-.57 3.22 3.22 0 0 0 .44-.66 1.71 1.71 0 0 0 .14-.84.13.13 0 0 0-.09-.05.07.07 0 0 1 0-.09.61.61 0 0 0-.1-.36 1.42 1.42 0 0 0-.25-.3L76.33 3a1.44 1.44 0 0 1-.28-.27.31.31 0 0 1-.21-.08l-.21-.17a2.2 2.2 0 0 0-.25-.17c-.09-.06-.19 0-.32.06a.79.79 0 0 0-.33-.15.39.39 0 0 1-.23-.12.52.52 0 0 1-.23.05h-.55a.52.52 0 0 0-.23.06 4.45 4.45 0 0 0-1.33.09c-.41.1-.82.18-1.23.25l-.8.2a4.66 4.66 0 0 0-.77.27 2.66 2.66 0 0 0-.65.41 1.65 1.65 0 0 0-.43.61 3.5 3.5 0 0 0 .59 1 2.4 2.4 0 0 0 .91.59zm5.83 2.55a.4.4 0 0 1-.08.3 1.32 1.32 0 0 1-.22.18l-.25.19a.45.45 0 0 0-.18.25c-.26.1-.51.2-.75.31l-.73.33c-.25.1-.5.2-.77.29a5.07 5.07 0 0 1-.87.2l.37-1.05c.12-.36.25-.69.36-1a3.44 3.44 0 0 0 .69-.18 5.25 5.25 0 0 1 .71-.16 2.61 2.61 0 0 1 .79 0 2.86 2.86 0 0 1 .93.34zm-2.54-4a6.24 6.24 0 0 1 1.61-.15 6.42 6.42 0 0 1-.87.86 4.44 4.44 0 0 1-1.1.65 1.18 1.18 0 0 0-.43-.48c-.19-.12-.37-.25-.55-.39a4.36 4.36 0 0 1 1.34-.47zM78.39 10.62a2.87 2.87 0 0 1 .07.46.37.37 0 0 1 .21.23.5.5 0 0 0 .17.26 1.65 1.65 0 0 0 .77.42 4.64 4.64 0 0 0 1 .13 7 7 0 0 0 1 0c.34-.05.63-.09.87-.15a.48.48 0 0 1 .22 0 .39.39 0 0 0 .3.03l1-.21a5.39 5.39 0 0 0 .88-.22 2.08 2.08 0 0 0 .7-.42 2.29 2.29 0 0 0 .55-.8.14.14 0 0 1-.14 0 .5.5 0 0 1 0-.13v-.17a.38.38 0 0 0-.09-.15.34.34 0 0 1-.24-.06l-.18-.18-.18-.23a.48.48 0 0 0-.3-.2 4.69 4.69 0 0 1-.8.18 2.07 2.07 0 0 0-.75.23 7.09 7.09 0 0 0-.84 0l-.61.1a6.62 6.62 0 0 1-.68.06 4.41 4.41 0 0 1-.89-.07 8.4 8.4 0 0 1 .36-.8 5.14 5.14 0 0 1 .47-.71 1.41 1.41 0 0 0 .43 0 .93.93 0 0 1 .42.07.55.55 0 0 1 .36-.05.54.54 0 0 0 .35 0 .19.19 0 0 0 .11 0H83a2.13 2.13 0 0 0 .69-.07 3 3 0 0 0 .62-.17 4.15 4.15 0 0 0 .53-.32l.5-.36a.48.48 0 0 0 0-.31.62.62 0 0 0-.09-.27.42.42 0 0 1-.25-.07 1.3 1.3 0 0 1-.23-.18l-.22-.23a1.37 1.37 0 0 0-.23-.2v-.09-.1c-.43 0-.87 0-1.32.08a7.34 7.34 0 0 1-1.23 0 .49.49 0 0 1 0-.25.71.71 0 0 0-.05-.29l.28-.07a.55.55 0 0 0 .24-.13 1 1 0 0 0 .48 0 .47.47 0 0 1 .37 0 3 3 0 0 1 1.06-.41l1-.19a3.54 3.54 0 0 0 .94-.28 1.8 1.8 0 0 0 .77-.74.61.61 0 0 1 0-.16.31.31 0 0 1 0-.1v-.11a.42.42 0 0 0 0-.16 2.48 2.48 0 0 1-.55-.32 1.44 1.44 0 0 1-.4-.45c0 .1 0 .13-.07.09s-.11 0-.15.09a.4.4 0 0 1-.27-.14c-.45.08-.84.14-1.19.18l-1 .14-1 .18c-.33.08-.71.18-1.13.32l-.66.14a4.59 4.59 0 0 0-.59.16 2 2 0 0 0-.5.25A1.41 1.41 0 0 0 79 4a2.09 2.09 0 0 1 .11.53c0 .18 0 .35.08.51a3.06 3.06 0 0 0 .15.49 1.37 1.37 0 0 0 .33.45c-.08.2-.15.38-.23.55l-.23.47c-.08.16-.15.32-.23.49s-.14.35-.2.54h-.13a.11.11 0 0 1-.09.09.48.48 0 0 1-.11.41 1 1 0 0 0-.2.43 2 2 0 0 0 0 .49c0 .18 0 .36.07.55zM104 2.64l-.18-.16a.52.52 0 0 1-.13-.17l-.16-.11-.38-.05h-.43a9.51 9.51 0 0 0-1 .06l-1.09.14c-.24 0-.48.08-.72.1l-.7.08-.21-.18a.62.62 0 0 0-.4-.07l-.16.08a2.1 2.1 0 0 0-.13.26l-.67.07-.64.06-1.08.09h-.71l-.14-.21a1.4 1.4 0 0 1-.15-.3 4.63 4.63 0 0 0-1.66-.2 8.68 8.68 0 0 0-1.54.25c-.5.12-1 .27-1.47.43s-.93.34-1.36.51l-.6.2a3.66 3.66 0 0 0-.61.27 3 3 0 0 0-.54.41 1.28 1.28 0 0 0-.35.57.71.71 0 0 1 0 .33q0 .13-.09.33a.31.31 0 0 1 .09.26 2.43 2.43 0 0 1 0 .33 2.33 2.33 0 0 0 .17.26 2.35 2.35 0 0 1 .19.25.14.14 0 0 1 .18 0 .31.31 0 0 1 .07.14 3.64 3.64 0 0 0 1 .28c.33.06.68.09 1 .12l.39.09a.42.42 0 0 0 .32 0 3.66 3.66 0 0 0 .65.26 3.25 3.25 0 0 1 .68.3h.17c0 .07 0 .11.08.12s.06.06 0 .13a.53.53 0 0 1-.11.24 1.45 1.45 0 0 1-.17.18 1 1 0 0 0-.18.17.63.63 0 0 0-.14.24l-.77.39q-.39.22-.81.42a5.37 5.37 0 0 1-.91.29 3.15 3.15 0 0 1-1 0 .37.37 0 0 0-.23.25 1 1 0 0 0 0 .34v.33a.58.58 0 0 1 0 .3.08.08 0 0 0 0 .07h.07s0 .08-.08.18.06 0 0 .08 0 .08.07.08a.65.65 0 0 0 .14.26 1.8 1.8 0 0 0 .19.21 1.28 1.28 0 0 1 .34 0h.36a1.2 1.2 0 0 0 .33 0 .7.7 0 0 0 .27-.14v.08a.15.15 0 0 1 .13 0c.38-.12.77-.26 1.17-.43a6.46 6.46 0 0 0 1.13-.61 4.72 4.72 0 0 0 1-.82 3.41 3.41 0 0 0 .66-1 1.58 1.58 0 0 0 .11-.63v-.7a1.57 1.57 0 0 0-.3-.47 1 1 0 0 1-.28-.28.15.15 0 0 0-.14-.06s-.08 0-.11-.11a1.39 1.39 0 0 0-.05-.33 1.14 1.14 0 0 0-.45-.61.78.78 0 0 0-.41-.11.42.42 0 0 0-.18-.23 1.6 1.6 0 0 0-.29-.11l-.32-.1a.45.45 0 0 1-.24-.16v-.1-.1l.5-.08a.77.77 0 0 0 .38-.16 1 1 0 0 0 .41 0l.43-.13a1.51 1.51 0 0 1 .41-.06.45.45 0 0 1 .34.14L94 4.56h.33l.14.19s.13.1.25.27a1.3 1.3 0 0 0 .27.1h.92a.6.6 0 0 1 .25 0h.32a.81.81 0 0 0 .37-.12.32.32 0 0 0 .15 0H97.67a1.59 1.59 0 0 0-.08.18 1.89 1.89 0 0 1-.09.21c-.05.12-.1.23-.14.34l-.19.42-.17.13a6.57 6.57 0 0 1-.22.67 27.72 27.72 0 0 0-.68 1.87 4.74 4.74 0 0 0-.1 1.55.9.9 0 0 1 .1.22c0 .08.05.17.07.27a2.58 2.58 0 0 0 .09.35.79.79 0 0 0 .17.31v.19l.14.08.33.16a.34.34 0 0 0 .14.13l.21.08a.36.36 0 0 0 .09.12h.19a1 1 0 0 0 .81-.3.85.85 0 0 0 .14-.72l-.14-.16-.22-.1a.35.35 0 0 1-.14-.07.32.32 0 0 0-.06-.13l-.09-.11a.69.69 0 0 1 0-.3.51.51 0 0 1 0-.17V10a.22.22 0 0 0 .08-.2.54.54 0 0 1 0-.11s0-.09.05-.14a1 1 0 0 0 .11-.35.26.26 0 0 0 .08-.11.65.65 0 0 1 .19-.09l.06-.18c0-.13.08-.28.14-.46a2.32 2.32 0 0 1 .29-.5 2.08 2.08 0 0 1 .17-.51 4.68 4.68 0 0 1 .26-.47c.06-.21.13-.4.2-.59s.14-.37.22-.55.17-.34.25-.52.14-.38.22-.61l.53-.05.61-.08.9-.12a6.52 6.52 0 0 1 .81-.06H103.56l.13-.06h.15a.5.5 0 0 1 .18 0h.15l.15-.19a.65.65 0 0 0 .18-.22.89.89 0 0 0-.14-.7 3.76 3.76 0 0 0-.36-.49zM115 7.39l-.08-.14h-.09l-.13-.06-.08-.22.12-.13h-.5a5.21 5.21 0 0 0-.8 0c-.26 0-.51.06-.75.11a5 5 0 0 1-.54.07 1 1 0 0 1-.57-.09.37.37 0 0 1 0-.21 2.34 2.34 0 0 1 .14-.28 1.2 1.2 0 0 1 .27-.79.78.78 0 0 0 0-.14v-.33a.85.85 0 0 1 .12-.28l.29-.14c.25-.09.55-.18.89-.27s.69-.15 1.05-.21.72-.1 1.07-.13.65-.05.91-.05h.19a1.43 1.43 0 0 1 .26 0L117 4a.53.53 0 0 0 .37-.24.9.9 0 0 0-.18-.73l-.12-.03-.1-.11-.2-.19a1.7 1.7 0 0 0-.26-.18q-.18-.42-.9-.42h-.16a.43.43 0 0 1-.16 0H115c-.53.06-1 .13-1.45.22s-.78.17-1 .24l-.44.14a.11.11 0 0 1-.11.06H111.59a.53.53 0 0 0-.24.11 6.32 6.32 0 0 0-.62.18l-.61.2-.63.21-.62.18-.15.14a.89.89 0 0 1-.12.2v.15a.47.47 0 0 0 0 .24.35.35 0 0 1 .07.14.1.1 0 0 1 0 .08l-.08.16.16.11a1.07 1.07 0 0 1 .23.34l.14.19a1 1 0 0 0 .26.25h.16a.5.5 0 0 1 .23.09.82.82 0 0 0-.06.38 1.85 1.85 0 0 0-.13.29c0 .09-.08.19-.11.28a1 1 0 0 1-.07.23.22.22 0 0 1-.15.15 1.35 1.35 0 0 1-.28-.22l-.21-.08-.35.11a1.45 1.45 0 0 0-.35.18 1 1 0 0 0-.29.29 1 1 0 0 0-.18.48 2 2 0 0 0 .24.79 1.42 1.42 0 0 0 .62.64 1.18 1.18 0 0 0-.07.2l-.06.19a5 5 0 0 0-.16.61 2.06 2.06 0 0 0 0 .77 2.78 2.78 0 0 0 .26.4l.11.15.08.16.17.13a1 1 0 0 1 .22.14l.22.08a1.28 1.28 0 0 0 .31 0 1 1 0 0 0 .53-.75.76.76 0 0 0-.06-.54.29.29 0 0 1 0-.09.59.59 0 0 1 0-.08l.06-.17a.68.68 0 0 1 .15-.24V10a1.2 1.2 0 0 0 .17-.36 1.66 1.66 0 0 0 .06-.16.47.47 0 0 1 .12-.13l.24-.07a.82.82 0 0 1 .26 0h.23a3.27 3.27 0 0 1 .5-.15 5.25 5.25 0 0 1 .55-.09l.46-.04.53-.1a.93.93 0 0 0 .24 0l.22-.05a1.06 1.06 0 0 1 .48-.07l.22-.06.64-.92a.46.46 0 0 0-.06-.24.4.4 0 0 0-.07-.17z"/><path d="M123.85 11.75a.63.63 0 0 0 .11-.29 2.61 2.61 0 0 0 0-.39 1.54 1.54 0 0 0-.38-.73l-.56-.06a2.44 2.44 0 0 1-.39-.06l-.42-.09-.64-.16a6.51 6.51 0 0 1-.64-.16 3.5 3.5 0 0 1-.43-.17 3.14 3.14 0 0 1-.42-.24l-.6-.38v-.07s-.06 0-.06-.07a11.29 11.29 0 0 1 1.17-.41 7.72 7.72 0 0 0 1.16-.47 3.35 3.35 0 0 0 1-.7 1.81 1.81 0 0 0 .45-1.13.48.48 0 0 0 0-.17v-.13a.53.53 0 0 1 0-.12.46.46 0 0 1 0-.13 2.81 2.81 0 0 1-.22-.5c-.07-.17-.13-.35-.19-.52a4.49 4.49 0 0 0-.22-.49 1.39 1.39 0 0 0-.31-.41v-.19a1.27 1.27 0 0 1-.21-.15 1.42 1.42 0 0 0-.22-.13 2.06 2.06 0 0 0-.64-.64l-.7-.48a1.86 1.86 0 0 0-1 .39 4.84 4.84 0 0 0-.74.76c-.22.29-.44.58-.65.88a3.54 3.54 0 0 1-.72.77q0-.12-.27-.18a.65.65 0 0 0-.38 0 4 4 0 0 0-.26.76l-.18.83c-.06.29-.12.58-.19.87a5.85 5.85 0 0 1-.26.84 1.12 1.12 0 0 1 0 .2 1.94 1.94 0 0 1 0 .24.74.74 0 0 1 0 .19c0 .05 0 .05-.09 0a.82.82 0 0 1 .05.46c0 .15-.08.3-.12.45a2.93 2.93 0 0 0-.12.47q0 .25-.09.54a1.47 1.47 0 0 1 .1.22c0 .07.08.11.13.11a.29.29 0 0 0 0 .18.8.8 0 0 0 0 .15 1.31 1.31 0 0 1 .05.15.94.94 0 0 1 0 .22c.11 0 .19 0 .21.07a2.17 2.17 0 0 1 .07.24.57.57 0 0 1 .22 0l.12.08.1.07a.37.37 0 0 0 .21 0 1.24 1.24 0 0 0 .18-.14.32.32 0 0 1 .28 0 2.82 2.82 0 0 0 .4-.67 9.21 9.21 0 0 0 .31-1l.52.47a4.42 4.42 0 0 0 .47.35 5.82 5.82 0 0 0 .62.33c.24.12.55.24.93.39a12.43 12.43 0 0 0 1.88.61 2.1 2.1 0 0 0 1.23 0 .4.4 0 0 0 .23-.09.79.79 0 0 0 .14-.17l.13-.19a.46.46 0 0 1 .16-.15.2.2 0 0 0-.13 0s-.18-.03-.18-.06zm-5.23-4.94a1.76 1.76 0 0 1 .22-.61 2.41 2.41 0 0 1 .36-.48c.13-.14.26-.28.41-.42a2.45 2.45 0 0 0 .38-.46 1.41 1.41 0 0 1 .58.4 1.34 1.34 0 0 1 .34.79l-1.14.47a4.39 4.39 0 0 1-1.15.31zM128.16 4.56a1.07 1.07 0 0 1-.07-.33V3.55a.59.59 0 0 1-.27-.27 1.8 1.8 0 0 1-.12-.35c0-.13-.05-.26-.08-.38a.8.8 0 0 0-.16-.35 1 1 0 0 0-.41.08 1.49 1.49 0 0 0-.3.18l-.26.23a1.37 1.37 0 0 1-.27.22.94.94 0 0 1-.09.52 2.38 2.38 0 0 1-.2.37.47.47 0 0 0 0 .27.48.48 0 0 1 0 .28c0 .06 0 .09-.09.11a.11.11 0 0 0-.09.08.33.33 0 0 0 0 .24.36.36 0 0 1 0 .27 7.43 7.43 0 0 1-.34 1.25 7.15 7.15 0 0 0-.41 1.27 3.89 3.89 0 0 0 0 .49v.52a4.19 4.19 0 0 1 0 .5 1.36 1.36 0 0 1-.1.43c0 .18.09.39.15.62s.12.47.2.71.15.46.24.68a2.65 2.65 0 0 0 .28.56 2.94 2.94 0 0 0 .6 0 1.34 1.34 0 0 0 .57-.15 1 1 0 0 0 .37-.4 1.26 1.26 0 0 0 .06-.75 6.65 6.65 0 0 1-.1-1.54 9.77 9.77 0 0 1 .2-1.51 13.12 13.12 0 0 1 .4-1.49c.16-.5.34-1 .53-1.51a.3.3 0 0 1-.24-.17zM137.06 10.18a1 1 0 0 0 0-.17.38.38 0 0 0-.09-.15.34.34 0 0 1-.24-.06l-.17-.18-.19-.23a.48.48 0 0 0-.22-.16 4.49 4.49 0 0 1-.8.18 2.07 2.07 0 0 0-.75.23 7.09 7.09 0 0 0-.84 0l-.65.08a6.67 6.67 0 0 1-.67.06 4.45 4.45 0 0 1-.9-.07 6.51 6.51 0 0 1 .37-.8 5.09 5.09 0 0 1 .46-.71 1.44 1.44 0 0 0 .44 0 .86.86 0 0 1 .41.07.56.56 0 0 1 .36-.05.54.54 0 0 0 .35 0 .21.21 0 0 0 .11 0h.11a2.13 2.13 0 0 0 .69-.07 2.78 2.78 0 0 0 .59-.23 3.55 3.55 0 0 0 .53-.32l.51-.36a.67.67 0 0 0 0-.31 1.07 1.07 0 0 0-.09-.27.43.43 0 0 1-.28-.06 1.3 1.3 0 0 1-.23-.18l-.22-.23a1.33 1.33 0 0 0-.22-.2V5.9v-.1c-.43 0-.87 0-1.32.08a7.34 7.34 0 0 1-1.23 0 .49.49 0 0 1 0-.25.72.72 0 0 0-.06-.29l.28-.09a.55.55 0 0 0 .24-.13 1 1 0 0 0 .48 0 .47.47 0 0 1 .37 0 3.1 3.1 0 0 1 1.06-.41l1-.19a3.43 3.43 0 0 0 .94-.28 1.75 1.75 0 0 0 .77-.74.61.61 0 0 1 0-.16v-.1a.43.43 0 0 1 0-.11A1.1 1.1 0 0 0 138 3a2.73 2.73 0 0 1-.55-.32 1.44 1.44 0 0 1-.4-.45c0 .1 0 .13-.07.09s-.11 0-.15.09a.42.42 0 0 1-.27-.14c-.44.08-.84.14-1.19.18l-1 .14-1 .18c-.33.08-.71.18-1.13.32l-.67.14a4 4 0 0 0-.58.16 1.8 1.8 0 0 0-.5.25 1.28 1.28 0 0 0-.39.38 3.58 3.58 0 0 1 .11.53c0 .18 0 .35.08.51a2.3 2.3 0 0 0 .15.49 1.49 1.49 0 0 0 .32.45 5.69 5.69 0 0 1-.23.55c-.07.16-.15.32-.23.48a4.37 4.37 0 0 0-.23.49c-.08.17-.14.35-.21.54h-.12a.13.13 0 0 1-.1.09.5.5 0 0 1-.1.41 1 1 0 0 0-.2.43 1.57 1.57 0 0 0 0 .49 5.43 5.43 0 0 0 .06.55c0 .18.07.36.1.53a4.49 4.49 0 0 1 .06.46.36.36 0 0 1 .22.23.48.48 0 0 0 .16.26 1.69 1.69 0 0 0 .78.42 4.63 4.63 0 0 0 1 .13 7 7 0 0 0 1 0c.34-.05.63-.09.88-.15a.54.54 0 0 1 .22 0 .35.35 0 0 0 .23 0l1.08-.19a5.26 5.26 0 0 0 .87-.22 2.12 2.12 0 0 0 .71-.42 2.42 2.42 0 0 0 .54-.8h-.13a.31.31 0 0 1-.06-.1zM147.16 4a1.42 1.42 0 0 0-.2-.53l-.35-.53a.84.84 0 0 1-.4-.15 3.61 3.61 0 0 1-.3-.25l-.31-.25a.84.84 0 0 0-.4-.15 1.6 1.6 0 0 0-.16.42c0 .15-.09.3-.13.46s-.09.29-.14.43a1 1 0 0 1-.22.35c-.09.51-.17 1-.24 1.52a8.31 8.31 0 0 1-.31 1.39 5.27 5.27 0 0 1-.56 1.17 2.59 2.59 0 0 1-.91.86 4.65 4.65 0 0 1-.11-.8V6.49a3.29 3.29 0 0 0 0-.7h.08a.09.09 0 0 1 .07 0 .43.43 0 0 1 0-.25.84.84 0 0 1 .08-.19 1.18 1.18 0 0 0 .07-.2.53.53 0 0 0 0-.29h.1a.07.07 0 0 1 .09 0 .47.47 0 0 1-.05-.16v-.29l-.07-.11c-.07-.11 0 0 .07 0s0 0 .07-.07a1.86 1.86 0 0 0-.26-.69 2.35 2.35 0 0 0-.5-.54 4.88 4.88 0 0 0-.65-.43c-.24-.12-.48-.22-.72-.32-.55 1.21-1.14 2.44-1.75 3.69s-1.17 2.41-1.69 3.51a.78.78 0 0 1 .11.28.66.66 0 0 1 0 .34 5.2 5.2 0 0 1 .24.52c.08.2.16.4.26.6a3.24 3.24 0 0 0 .35.53 1 1 0 0 0 .5.33.48.48 0 0 0 .18-.05.31.31 0 0 1 .26 0 .19.19 0 0 0-.05-.12v-.08a.42.42 0 0 0 .36-.09.68.68 0 0 0 .13-.27c0-.11.05-.21.07-.33a.38.38 0 0 1 .16-.27.47.47 0 0 1 0-.28.85.85 0 0 1 .09-.22 2.43 2.43 0 0 1 .14-.2.53.53 0 0 0 .08-.22.18.18 0 0 0 .17-.12l.11-.26c0-.09.08-.18.12-.28a.27.27 0 0 1 .2-.16 5.2 5.2 0 0 0 .82 1.47 5.67 5.67 0 0 0 1.15 1.09 1.44 1.44 0 0 0 .72.11 1 1 0 0 0 .47-.19 3.57 3.57 0 0 0 .37-.31 1.18 1.18 0 0 1 .4-.27.23.23 0 0 1 0-.13.08.08 0 0 1 0-.07v-.06a.14.14 0 0 0 0-.09c.06 0 .1 0 .11.05s0 0 .07 0l.31-.58a1.41 1.41 0 0 1 .39-.49c.05-.22.13-.46.22-.74s.19-.53.27-.78a4.89 4.89 0 0 1 0-.78c0-.24.08-.47.12-.69l.15-.67q.06-.34.12-.75a1 1 0 0 0 .22-.23 1.48 1.48 0 0 0 .12-.29 2.23 2.23 0 0 0 .09-.32 1.26 1.26 0 0 1 .2-.38zM153.35 5.07a8 8 0 0 0-1.09-.89c-.41-.27-.79-.53-1.17-.81a7.58 7.58 0 0 1-1.55-.55 11.2 11.2 0 0 0-1.64-.65 1 1 0 0 0-.14.4 1.79 1.79 0 0 1-.14.47c0 .2.11.38.16.54a1.31 1.31 0 0 1 .09.47h-.21c-.07 0-.1 0-.09.13a.08.08 0 0 1 0 .1 1 1 0 0 0 0 .23A8 8 0 0 1 147.8 6a7.92 7.92 0 0 1 0 1.54.29.29 0 0 0-.17.17 3.75 3.75 0 0 1-.16.81c-.08.26-.17.53-.25.8a.58.58 0 0 1-.09.35.78.78 0 0 0-.13.29c0 .25 0 .5.07.74a2.68 2.68 0 0 0 .14.65 1.63 1.63 0 0 0 .3.51 1.16 1.16 0 0 0 .58.32c.59-.28 1.2-.54 1.82-.77s1.22-.5 1.8-.79a10.14 10.14 0 0 0 1.58-1 4.66 4.66 0 0 0 1.19-1.41V8a.37.37 0 0 1 0-.12v-.23a3.51 3.51 0 0 0-.38-1.48 4.71 4.71 0 0 0-.75-1.1zm-.79 2.43a2.86 2.86 0 0 1-.5.42 5.76 5.76 0 0 1-.6.33l-.66.27-.16.14a.36.36 0 0 0-.14.16 1.28 1.28 0 0 0-.36.07 1.39 1.39 0 0 0-.28.12l-.27.11a1.38 1.38 0 0 1-.29.08c.07-.44.13-.84.17-1.21a10 10 0 0 0 .06-1.08 9.28 9.28 0 0 0-.09-1.06 8.83 8.83 0 0 0-.24-1.13.3.3 0 0 1 .18 0 1 1 0 0 0 .42.2 4.17 4.17 0 0 1 .62.26 1.12 1.12 0 0 1 .39.09 2.27 2.27 0 0 1 .31.17l.31.17a1.07 1.07 0 0 0 .37.12 1 1 0 0 0 .2.27l.31.28.32.28a1 1 0 0 1 .25.34 1.91 1.91 0 0 1-.32.6zM174.52 3.07a3.06 3.06 0 0 0-.46-.5 4.6 4.6 0 0 0-.61-.45 6.61 6.61 0 0 0-.65 1.22c-.23.53-.46 1.07-.68 1.63-.14.38-.29.76-.44 1.12s-.29.71-.45 1a6.84 6.84 0 0 1-.47.82 2.59 2.59 0 0 1-.52.56l-.63.49a1.2 1.2 0 0 1-.13-.28 2 2 0 0 1-.06-.3 1.17 1.17 0 0 1 0-.32 2.73 2.73 0 0 1 0-.32v-.3c0-.12 0-.27.09-.47s.11-.5.19-.91c0-.12.06-.26.09-.4l.09-.42c0-.14 0-.26.07-.38a2.11 2.11 0 0 0 .05-.28c-.05-.09-.11-.17-.17-.26l-.18-.27-.17-.21a3.1 3.1 0 0 0-.18-.26 1.68 1.68 0 0 1-.42-.22 2.34 2.34 0 0 1-.32-.3 3.64 3.64 0 0 0-.46.52c-.17.22-.34.47-.51.73s-.35.55-.53.84-.34.56-.5.82-.33.55-.46.77-.25.41-.37.59a6.41 6.41 0 0 1-.39.52 7.31 7.31 0 0 1-.5.56 8.426 8.426 0 0 1-.91.76 1.19 1.19 0 0 1-.41.2c.09-.67.18-1.21.27-1.6.05-.22.1-.42.16-.6s.15-.48.26-.79.21-.62.32-.94.21-.64.32-1a7.53 7.53 0 0 0 .22-.88 4.23 4.23 0 0 1-.49-.44 4.26 4.26 0 0 1-.44-.54l-.14-.02a.5.5 0 0 1-.18-.15.94.94 0 0 0-.53.32 3.37 3.37 0 0 0-.47.66 7.34 7.34 0 0 0-.39.85q-.19.46-.33.87a11.5 11.5 0 0 0-.31 1.12c-.1.43-.19.85-.28 1.27s-.17.81-.23 1.17-.11.6-.15.75.15.4.23.57a4.92 4.92 0 0 0 .28.57l.12.25a1.66 1.66 0 0 0 .13.27 3 3 0 0 0 .48.4l.5.28.35.18a4 4 0 0 0 1.12-.2 4.68 4.68 0 0 0 1-.48 7.06 7.06 0 0 0 .89-.66l.83-.76.16-.15.28-.26.19-.17.13.25.22.41.09.18a1.74 1.74 0 0 1 .1.19 12.08 12.08 0 0 0 .64 1.09 2.08 2.08 0 0 0 .88.75.63.63 0 0 1 .43-.15 1.33 1.33 0 0 1 .3 0 5 5 0 0 0 1.17-1 9.16 9.16 0 0 0 .92-1.27 15.19 15.19 0 0 0 .75-1.45c.23-.5.44-1 .66-1.52s.32-.78.5-1.17.35-.77.54-1.14a4.26 4.26 0 0 0-.16-.82 2.76 2.76 0 0 0-.34-.54zM178.38 4.56a1.47 1.47 0 0 1-.07-.33V3.55a.59.59 0 0 1-.27-.27 1 1 0 0 1-.12-.35c0-.13 0-.26-.08-.38a.82.82 0 0 0-.17-.35 1 1 0 0 0-.4.08 1.49 1.49 0 0 0-.3.18l-.26.23a1.74 1.74 0 0 1-.27.22.94.94 0 0 1-.09.52 3.7 3.7 0 0 1-.2.37.4.4 0 0 0 0 .27.58.58 0 0 1 0 .28.13.13 0 0 1-.09.11.14.14 0 0 0-.1.08.34.34 0 0 0 0 .24.49.49 0 0 1 0 .27 8.52 8.52 0 0 1-.34 1.25 7.15 7.15 0 0 0-.32 1.27 2.63 2.63 0 0 0 0 .49v1.02a1.7 1.7 0 0 1-.1.43c0 .18.09.39.15.62s.12.47.2.71.15.46.23.68a2.65 2.65 0 0 0 .29.56 2.94 2.94 0 0 0 .6 0 1.26 1.26 0 0 0 .56-.15 1 1 0 0 0 .38-.4 1.26 1.26 0 0 0 .06-.75 6.66 6.66 0 0 1-.11-1.54 11.16 11.16 0 0 1 .2-1.51 13.17 13.17 0 0 1 .24-1.46c.16-.5.34-1 .53-1.51a.32.32 0 0 1-.15-.2zM188.26 5.88a7.37 7.37 0 0 0 .12-.75.8.8 0 0 0 .22-.23 1.51 1.51 0 0 0 .13-.29l.09-.32a.92.92 0 0 1 .11-.29 1.42 1.42 0 0 0-.2-.53c-.11-.17-.22-.35-.35-.53a.84.84 0 0 1-.4-.15l-.3-.25a2 2 0 0 0-.31-.25.84.84 0 0 0-.4-.15 2 2 0 0 0-.16.42l-.12.46c-.05.15-.09.29-.15.43a.91.91 0 0 1-.22.35l-.24 1.52a8.31 8.31 0 0 1-.32 1.39 5.25 5.25 0 0 1-.55 1.17 2.68 2.68 0 0 1-.91.86 3.88 3.88 0 0 1-.12-.8v-.75-.7a4.1 4.1 0 0 0 0-.7h.07a.08.08 0 0 1 .07 0 .36.36 0 0 1 0-.25.54.54 0 0 1 .07-.19.68.68 0 0 0 .07-.2.45.45 0 0 0 0-.29h.2a.32.32 0 0 1-.05-.16v-.22a.08.08 0 0 0 0-.07l-.06-.11c-.06-.11 0 0 .06 0s.06 0 .08-.07a2.07 2.07 0 0 0-.27-.69 2.35 2.35 0 0 0-.5-.54 4.31 4.31 0 0 0-.65-.43c-.24-.12-.48-.22-.72-.32q-.82 1.82-1.74 3.69c-.61 1.24-1.18 2.41-1.7 3.51a.54.54 0 0 1 .11.28.65.65 0 0 1 0 .34c.07.15.15.32.23.52s.17.4.27.6a4 4 0 0 0 .34.53 1 1 0 0 0 .5.33.48.48 0 0 0 .22-.07.31.31 0 0 1 .26 0 .19.19 0 0 0-.05-.12v-.08a.4.4 0 0 0 .35-.09.68.68 0 0 0 .13-.27 3.2 3.2 0 0 0 .07-.33.41.41 0 0 1 .16-.27.47.47 0 0 1 0-.28.85.85 0 0 1 .09-.22 2.43 2.43 0 0 1 .14-.2.54.54 0 0 0 .09-.22.17.17 0 0 0 .16-.12 1.56 1.56 0 0 0 .11-.26l.12-.28a.27.27 0 0 1 .21-.16 5.18 5.18 0 0 0 .81 1.47 6.25 6.25 0 0 0 1.15 1.09 1.44 1.44 0 0 0 .72.11 1.13 1.13 0 0 0 .48-.19 3.57 3.57 0 0 0 .37-.31 1.05 1.05 0 0 1 .39-.27.23.23 0 0 1 0-.13.08.08 0 0 1 0-.07v-.06a.14.14 0 0 0 0-.09c.06 0 .1 0 .11.05s0 0 .08 0c.1-.2.21-.39.3-.58a1.57 1.57 0 0 1 .4-.49 6.42 6.42 0 0 1 .22-.74q.13-.41.27-.78a4.89 4.89 0 0 1 0-.78q0-.36.12-.69c.12-.29.17-.51.22-.74zM190.88 10.27v-.24l-.06-.12a.79.79 0 0 0-.38-.17 2.85 2.85 0 0 1-.51-.12l-.37-.07a.66.66 0 0 1-.27-.08l-.29-.12-.14.21c-.12.17-.2.29-.26.36a1 1 0 0 1-.14.19.75.75 0 0 1-.16.13l-.28.21.17.3-.19.14.22.22a.53.53 0 0 1 .08.27 1.17 1.17 0 0 1 0 .2 1 1 0 0 0 .17.32 1.08 1.08 0 0 1 .24.18l.3.26h.2a1.64 1.64 0 0 0 .45-.06h.21v-.19l.1-.05.1-.06.22-.11a.75.75 0 0 0 .19-.17l.06-.19a.42.42 0 0 0 0-.14l.06-.15c0-.09.07-.19.1-.29a2.33 2.33 0 0 1 .11-.31 2 2 0 0 1 .07-.35zM91 13.41c-1.64 0-14.33.22-19.5.86-2.19.29-2.89.63-2.75 1.16 0 .07.15.09.28.08a9.82 9.82 0 0 1 1.31-.18c10.3-.29 25.61-.42 28.39.64.22.06.45 0 .43-.1a2.88 2.88 0 0 0-.16-1.28c-.57-1.24-5.76-1.24-8-1.18z"/></svg>
