<svg xmlns="http://www.w3.org/2000/svg" viewBox="0 0 145 130" class="svg svg--logo {{ classList | default('') }}" aria-hidden="true" focusable="false"><path d="M33.4 108.26l.47.45a58.71 58.71 0 009.7-14c-7.25.18-14 .43-19.8.67a56.34 56.34 0 009.63 12.88zM86.65 41.06l3.32.07 3.28.12c2.08.07 4.15.15 6.17.24a63.37 63.37 0 0110.31-15.71 55.87 55.87 0 00-33.52-13.45v28.59c3.5.08 6.99.08 10.44.14zM23 43h.51l5.28-.44c1.83-.14 3.72-.25 5.65-.38l6-.37 1.56-.14 1.27-.05a58.57 58.57 0 00-9.37-13.36l-.47.45A56.18 56.18 0 0023 43zM51.27 16.66a55.66 55.66 0 00-13.55 8.16 63.9 63.9 0 0111.12 16.56l4.27-.16 3.28-.11c1.1 0 2.21 0 3.32-.06 3.49-.06 7-.11 10.57-.14v-28.6a55.74 55.74 0 00-19.01 4.35zM104.8 94.8a58.93 58.93 0 008.7 12.84 55.87 55.87 0 009-12.22c-5.2-.22-11.21-.42-17.7-.62zM111.87 42.17c1.94.13 3.82.24 5.64.39l5.27.45h.51a56 56 0 00-9.8-13.72A59.51 59.51 0 00105 41.75c2.36.13 4.65.25 6.87.42zM109.74 111.19A64.33 64.33 0 0199 94.65c-7.27-.17-15-.28-22.75-.27v30.27a55.86 55.86 0 0033.53-13.46zM49.27 94.58a63.37 63.37 0 01-11.55 17.58 56.36 56.36 0 0013.55 8.16 55.73 55.73 0 0019 4.34V94.38c-7.11-.02-14.22.06-21 .2z" class="cls-1"></path><path d="M34.63 81.41l3.79-.12c-.68-2.29-1.42-4.57-2.07-6.85-.58 2.32-1.15 4.65-1.72 6.97zM56.11 73H53.8l.2 10.79h2.29c3 0 4.66-2.35 4.63-5.46S59.07 73 56.11 73zM79.66 52.24h-1.89v8.69h1.88c2.47 0 3.89-1.83 3.91-4.34s-1.46-4.34-3.9-4.35zM23.28 53.28l-2.88.12c.06 1.19.11 2.38.17 3.57l3-.13c.59 0 1.16-.71 1.12-1.84s-.83-1.75-1.41-1.72zM138.5 54.11l-2.39-.11c-.06 1.18-.13 2.37-.19 3.56l2.5.14c.58 0 1.21-.37 1.29-1.71s-.62-1.84-1.21-1.88z" class="cls-2"></path><path d="M7.52 66.76l-.36-6.18 5.77-.32c-.07-1.24-.13-2.47-.2-3.7L7 56.87c0-.92-.11-1.84-.16-2.76l7.11-.39c-.07-1.33-.14-2.66-.2-4q-6 .32-11.9.67L2.82 67zM27.19 59.67a5.75 5.75 0 002.29-4.86 5.9 5.9 0 00-6.06-5.54l-8 .37q.4 8.32.82 16.65l4.7-.22c-.08-1.7-.16-3.41-.23-5.11l1.76-.08q1.75 2.48 3.48 5l5.3-.2c-1.32-2.03-2.68-4.02-4.06-6.01zm-3.64-2.83l-3 .13c-.06-1.19-.11-2.38-.17-3.57l2.88-.12c.58 0 1.34.57 1.39 1.72s-.51 1.81-1.1 1.84zM37.5 65.44L37 48.77l-4.77.16q.3 8.34.59 16.66zM52.64 65.07c0-1.33 0-2.66-.07-4-2.51 0-5 .1-7.52.16 0-.88 0-1.75-.07-2.63l6.26-.14c0-1.23-.05-2.47-.07-3.71l-6.28.14v-2.35q3.67-.09 7.36-.15c0-1.33-.05-2.66-.07-4q-6.08.11-12.16.28.24 8.33.47 16.66 6.06-.14 12.15-.26zM59.53 65l-.09-8.19q3.47 4 6.89 8.13h3.74V48.27H65.3v8.47q-3.48-4.22-7-8.41h-3.72L54.84 65zM79.69 48.25h-6.68V64.9h6.58c5.2 0 8.67-3.23 8.74-8.28.07-4.57-2.86-8.34-8.64-8.37zm-.08 12.68h-1.88v-8.69h1.89c2.44 0 3.89 1.77 3.86 4.35s-1.4 4.35-3.87 4.34zM96.59 61.23a12.61 12.61 0 01-5.49-1.94q-1 2-2.09 4a16.5 16.5 0 007.42 2.08c3.18.06 6.54-1.14 6.65-5.15.08-3.12-1.9-4.26-5.07-5.29-2-.66-3.19-.87-3.18-1.74 0-.58.58-.81 1.41-.79a10.71 10.71 0 014.54 1.6l2.15-3.73a15.44 15.44 0 00-6.46-2C93 48.26 90 50.16 89.9 53.85c0 2.44 1.29 3.7 4.3 4.75 2 .71 3.81 1 3.79 1.93.01.47-.38.72-1.4.7zM109.93 59l5.76.2-.24 6.53 4.7.18.69-16.65-4.76-.19-.24 6.14-5.78-.2q.09-3.08.2-6.15l-4.77-.15q-.24 8.29-.49 16.65l4.69.14c.09-2.17.17-4.35.24-6.5zM128.59 49.59l-4.77-.23q-.36 8.34-.74 16.66l4.7.22zM139.05 50.14c-2.49-.14-5-.28-7.48-.4q-.42 8.32-.85 16.65l4.69.25c.1-1.71.19-3.41.29-5.11l2.8.15a5.71 5.71 0 006-5.42 5.9 5.9 0 00-5.45-6.12zm-.63 7.54l-2.5-.14c.06-1.19.13-2.38.19-3.56l2.39.13c.59 0 1.29.48 1.21 1.86s-.71 1.75-1.29 1.71zM18.08 69.28Q16 74.23 14 79.19q-2.51-4.72-5-9.43l-6.32.37q.59 10.29 1.23 20.57l5.69-.34c-.21-3.61-.41-7.22-.62-10.83C10.29 82 11.6 84.47 12.89 87l3-.16C17 84.19 18 81.6 19.05 79l.51 10.84 5.69-.26Q24.8 79.29 24.37 69zM33.82 68.63q-3.59 10.44-7 20.89c2-.09 4-.16 6-.24l1.08-4.07 5.55-.21c.45 1.33.91 2.66 1.37 4l6-.16q-4.09-10.2-8.32-20.39zm.81 12.78c.57-2.32 1.14-4.65 1.72-7 .69 2.28 1.39 4.57 2.07 6.85zM56 68.09c-2.71 0-5.41.09-8.12.15l.45 20.6c2.66-.06 5.31-.11 8-.15 6.29-.09 10.41-4.19 10.39-10.43C66.7 72.57 63.06 68 56 68.09zm.23 15.67h-2.29l-.14-10.7h2.31c3 0 4.75 2.09 4.79 5.28s-1.65 5.38-4.63 5.42zM82.12 78.48Q78 73.22 73.74 68h-4.51l.06 20.61H75V78.49q4.14 5.07 8.2 10.17c1.51 0 3 0 4.53.06q.13-10.31.28-20.61l-5.8-.11zM91.29 88.73q7.38.12 14.75.35l.15-4.93q-4.55-.15-9.11-.24c0-1.08 0-2.17.08-3.25 2.52 0 5 .12 7.58.19 0-1.53.08-3.06.13-4.58-2.54-.08-5.08-.14-7.61-.2l.06-2.9c3 .07 6 .15 8.93.24l.15-4.94q-7.38-.21-14.77-.34-.16 10.31-.34 20.6zM116.19 73.66c2.52.09 5.48 2.11 5.48 2.11q1.33-2.28 2.69-4.55a18.35 18.35 0 00-7.8-2.57c-4.16-.16-8 2.13-8.09 6.68-.1 3 1.48 4.6 5.1 6 2.47.93 4.6 1.28 4.55 2.46 0 .55-.48.88-1.71.84-3.19-.13-6.6-2.51-6.6-2.51L107.19 87a19.5 19.5 0 008.93 2.73c3.85.15 7.94-1.26 8.18-6.22.18-3.85-2.2-5.3-6-6.65-2.38-.85-3.85-1.14-3.81-2.21 0-.77.7-1.03 1.7-.99zM134.43 74.51c2.52.14 5.44 2.2 5.44 2.2l2.77-4.51a18.52 18.52 0 00-7.76-2.69c-4.16-.23-8 2-8.2 6.55-.14 3 1.4 4.63 5 6 2.45 1 4.57 1.35 4.51 2.54 0 .55-.49.87-1.72.8-3.19-.17-6.56-2.61-6.57-2.61l-2.7 4.84a19.54 19.54 0 008.89 2.87c3.85.21 8-1.13 8.28-6.08.24-3.85-2.11-5.34-5.91-6.75-2.37-.89-3.83-1.2-3.78-2.27.05-.69.75-.94 1.75-.89zM143.5 45.33c-1.05-.14-2.48-.38-4.44-.61s-4.34-.54-7.08-.82l-2.59-.27a61.48 61.48 0 00-112.46-.07l-2.69.28c-2.74.28-5.27.59-7.23.83s-3.78.49-4.83.63-2.18.27-2.18.27v.27c0 .09 36.47-2.33 72.5-2.14 36-.2 72.49 2.11 72.48 2.13s0-.18 0-.28zM136.15 95.32c-1.88-.23-4.16-.53-6.78-.8l-4.16-.45c-1.47-.15-3-.28-4.63-.43l-5-.43c-1.74-.15-3.54-.25-5.39-.38-3.71-.24-7.61-.5-11.66-.66-2-.08-4.07-.17-6.15-.24l-3.14-.12-3.24-.07c-4.25-.07-8.56-.13-12.88-.16s-8.63.08-12.88.15l-3.17.06-3.07.11-6.16.24-3 .13-1.48.07-1.47.09-5.7.35c-1.85.13-3.66.24-5.4.38l-5 .43c-1.61.15-3.19.28-4.66.43l-4.24.44c-2.62.27-5 .58-6.91.81s-3.61.49-4.62.62-2.08.26-2.08.26v.28c0 .09 5.7-.38 14.78-.8a61.47 61.47 0 00110.32.05c8.33.4 13.51.73 13.51.74a2.64 2.64 0 010-.28l-1.44-.22c-1.06-.14-2.45-.37-4.3-.6z" class="cls-3"></path><path d="M113.49 29.33A59.51 59.51 0 00105 41.75c2.35.13 4.64.28 6.86.42 1.94.13 3.82.24 5.64.39l5.27.45h.51a56 56 0 00-9.79-13.68zM90 41.13l3.28.12c2.08.07 4.15.15 6.17.24a63.37 63.37 0 0110.31-15.71 55.87 55.87 0 00-33.55-13.45v28.59c3.5 0 7 .08 10.44.14zM37.72 24.82a63.9 63.9 0 0111.12 16.56l4.27-.16 3.28-.11c1.1 0 2.21 0 3.32-.06 3.49-.06 7-.11 10.57-.14v-28.6a55.93 55.93 0 00-32.56 12.51zM34.47 42.13l6-.37 1.53-.09 1.27-.05a58.57 58.57 0 00-9.37-13.36l-.47.45A56.18 56.18 0 0023 43h.51l5.28-.44c1.86-.19 3.75-.3 5.68-.43zM49.27 94.58a63.37 63.37 0 01-11.55 17.58 56.36 56.36 0 0013.55 8.16 55.73 55.73 0 0019 4.34V94.38c-7.11-.02-14.22.06-21 .2zM23.77 95.38a56.34 56.34 0 009.63 12.88l.47.45a58.71 58.71 0 009.7-14c-7.25.18-13.99.43-19.8.67zM76.21 94.38v30.27a55.86 55.86 0 0033.53-13.46A64.33 64.33 0 0199 94.65c-7.31-.17-15-.28-22.79-.27zM113.5 107.64a55.87 55.87 0 009-12.22c-5.2-.22-11.21-.44-17.7-.62a58.93 58.93 0 008.7 12.84zM15.29 38.12a1.42 1.42 0 01-1.73.69 1.44 1.44 0 01.69 1.74 1.42 1.42 0 011.75-.64 1.42 1.42 0 01-.71-1.79zM132.77 38.64a1.51 1.51 0 01-1.88-.54 1.51 1.51 0 01-.54 1.88 1.49 1.49 0 011.88.54 1.5 1.5 0 01.55-1.88zM24.75 22.37v-.06h-.06a2.27 2.27 0 01-2.94.27.06.06 0 000 .06A2.27 2.27 0 0122 25.6h.05a2.27 2.27 0 012.95-.22h.05v-.05a2.27 2.27 0 01-.3-2.96zM124.43 22.55h-.06a2.3 2.3 0 01-3-.23h-.06v.06a2.3 2.3 0 01-.23 3 .06.06 0 000 .06 2.31 2.31 0 013 .23h.05a2.31 2.31 0 01.23-3v-.05zM41.49 9.09h-.06a2.6 2.6 0 01-3.3-.74.06.06 0 00-.06 0v.06a2.61 2.61 0 01-.73 3.3.06.06 0 000 .07 2.59 2.59 0 013.3.73.06.06 0 00.07 0v-.06a2.59 2.59 0 01.73-3.3v-.06zM108.16 8.39v-.06a.06.06 0 00-.06 0 2.59 2.59 0 01-3.3.73.06.06 0 00-.07 0v.07a2.61 2.61 0 01.73 3.3v.06h.06a2.59 2.59 0 013.3-.73h.06v-.06a2.61 2.61 0 01-.72-3.31zM63.29 2.17A2.75 2.75 0 0160.17.44h-.06a.05.05 0 000 .06 2.75 2.75 0 01-1.78 3.1v.06a2.74 2.74 0 013.13 1.73h.06a2.74 2.74 0 011.73-3.13V2.2a.07.07 0 00.04-.03zM87.61 2.9a2.68 2.68 0 01-2-2.85h-.05a2.68 2.68 0 01-2.85 2v.05a2.67 2.67 0 012 2.84.07.07 0 000 .06 2.69 2.69 0 012.85-2l.05-.1z" class="cls-1"></path></svg>