<svg xmlns="http://www.w3.org/2000/svg" viewBox="0 0 191 16" class="svg svg--logo {{ classList | default('') }}" aria-hidden="true" focusable="false"><path d="M1.33 12.18a1.54 1.54 0 01-.53-.09 1.85 1.85 0 01-.44-.71 3.13 3.13 0 01-.27-1A4.3 4.3 0 010 9.33a3.68 3.68 0 01.18-1L.36 8c.08-.27.26-.53.35-.89s.36-.8.53-1.24a9 9 0 01.63-1.34 5 5 0 01.62-1.24 8 8 0 00.44-.89c.09-.18.18-.27.27-.44a1.24 1.24 0 01.27-.36c.09-.18.26-.36.35-.53a1.58 1.58 0 01.36-.45 1.87 1.87 0 01.44-.35C4.62.18 4.8.09 5 0c.09.09.26.09.35.18s.18.09.27.18l.09.26c0 .09.09.09.09.18h.09c.17 0 .26.09.35.09s.16.11.34.11c0 .09.09.09.09.18s.08.08.08.17c.18.27.36.63.54.89a1 1 0 010 1v.18a.28.28 0 01.09.18v.88l.09.09a1.08 1.08 0 00.53.05.93.93 0 00.53-.18A1.67 1.67 0 009 4.18.66.66 0 019.33 4a.33.33 0 01.27-.09 3.79 3.79 0 00.62-.53 4.29 4.29 0 01.62-.54 10.43 10.43 0 001.07-1A5 5 0 0012.8.53a.53.53 0 01.35-.09 1 1 0 01.45.09c.18.09.27.09.44.18a.09.09 0 01.09.09.09.09 0 01.09.09.62.62 0 00.18.35.09.09 0 01.09.09h.09c.08.09.17.09.17.18s.09.09.18.18a1.12 1.12 0 00.45.62v.36c0 .09.08.17.08.35a.09.09 0 00.09.09.28.28 0 00.09.18h-.35l.09.35v.63c-.09.17-.09.35-.18.53V6c0 .18-.09.27-.09.45s-.09.27-.18.44a9 9 0 01-.27 2.23c-.26.62-.44 1.24-.71 1.86a.33.33 0 01-.08.18c0 .09-.09.09-.09.18s-.18.09-.36.09-.18.09-.27.17a.62.62 0 01-.35.18.54.54 0 01-.36.09 2.15 2.15 0 01-.8-1.95 14.81 14.81 0 01.54-3.47c.09-.09.09-.09.09-.27V6h-.36a.31.31 0 00-.09.18 6.2 6.2 0 01-1.07.71 5.2 5.2 0 01-1.24.71l-1.33.54a3.23 3.23 0 01-1.25.18 2.59 2.59 0 01-2.4-1.6l-.17-.27-.18.27c0 .08-.09.17-.18.26a1.52 1.52 0 01-.18.45 1.57 1.57 0 00-.18.62 1.23 1.23 0 00-.08.53L3.2 9a2.87 2.87 0 00-.27.53v.18c0 .09 0 .09.09.18S3 10 2.93 10l-.09.09-.17.18-.18.18c0 .09 0 .09-.09.18v.17a.33.33 0 01-.09.27 1.32 1.32 0 01-.27.53 1.08 1.08 0 01-.26.36c-.09.09-.18.09-.27.18 0-.05-.09.04-.18.04zM24.09 10.58l-.27.53a2.34 2.34 0 01-.44.53 1.88 1.88 0 01-.54.36 1.62 1.62 0 01-.62.18.39.39 0 01-.27-.09.31.31 0 00-.17-.09.09.09 0 01-.09-.09h-.09l-.18-.09.09-.26v-.18c0-.09-.09-.09-.18-.18l-.09-.09-.09-.11-.26-.26.44-.09a1.32 1.32 0 00.53-.27c.09-.09.09-.27.09-.62-.17 0-.35-.09-.53 0s-.27.09-.44.09-.36.09-.54.17-.44.09-.62.09h-.71c0-.09 0-.17-.09-.17l-.09-.09-.18-.18c-.09-.09-.09-.18 0-.36a.31.31 0 01-.09-.26c-.08.09-.08.26-.17.35l-.09.18h-.18l-.09.09v.09L18 10l-.09.09-.09.09c0 .09-.08.18-.08.27s-.09.18-.09.27-.09.26-.18.44-.09.27 0 .36l-.09.17-.18.18c-.09 0-.09.09-.18.09a.08.08 0 00-.08.09h-.09l-.09.18h-.18a.33.33 0 00-.27.09H16l-.27-.27c-.09-.09-.18-.09-.18-.18a.45.45 0 01-.17-.27v-.4l-.18-.2.18-.18v-.26a7 7 0 01.71-1.51c.26-.54.44-1 .71-1.51l.26-.54.27-.53v-.25a1.87 1.87 0 01.27-.44c.09-.18.18-.27.26-.45l.27-.53a1.72 1.72 0 01.36-.53l.26-.09h.54l.8-.54a8.73 8.73 0 00.71-.88l.2-.18.17.09c.09 0 .09.09.27.09s.18.08.27.08a1.29 1.29 0 01.53.18 1.1 1.1 0 01.44.27.67.67 0 01.09.35.33.33 0 00.09.27c0 .18.09.36.09.53s.09.36.09.63a1.08 1.08 0 01.09.53c0 .18.09.36.09.53a7.21 7.21 0 00.18.71c.08.27.08.45.17.72h.18c.09 0 .09 0 .18-.09h.35l.09.17c0 .09.09.09.18.18s.27 0 .27.09l.17.18.09.09.27.09-.09.26a2.61 2.61 0 01-.44.54 3 3 0 01-.63.44v.36c0 .17.09.35.09.53v.6zm-4.63-2.76c.36 0 .63-.09.89-.09a4.29 4.29 0 00.89-.17c-.09-.36-.18-.63-.26-1s-.18-.71-.27-1l-.09.18c-.18.26-.44.44-.62.71l-.54.8c-.08.09-.08.18-.17.27s-.09.17-.18.26h.18a.11.11 0 00.17.04z" class="cls-1"></path><path d="M29.69 7.73c-.09.09-.09.18-.18.27s-.09.18-.18.27-.09.26-.18.35l-.26.27c-.09.18-.09.27-.18.35l-.27.27a3.15 3.15 0 01-.71 1.33.33.33 0 01-.09.27c-.09.09-.09.18-.18.27a.09.09 0 01-.09.09s0 .09-.08.09v.17c-.09.09-.09.18-.18.18l-.18.18-.09.09-.27.09A1.53 1.53 0 0125.15 11v-.18c0-.08 0-.08.09-.17s0-.09.09-.18.09-.27.18-.45a1.58 1.58 0 01.26-.35c0-.09.09-.18.18-.36a5.94 5.94 0 01.36-.71 4.27 4.27 0 00.35-.6c.09-.18.18-.27.18-.36a2.5 2.5 0 00-.35-.44 3.14 3.14 0 01-.36-.8 4.21 4.21 0 00-.27-.62c0-.18 0-.27-.09-.36a.33.33 0 00-.08-.26c0-.09-.09-.27-.09-.36v-.36a.3.3 0 01-.09-.26v-.45c0-.09-.09-.26-.09-.35s-.09-.18-.09-.36v-.35c0-.09.09-.27.09-.36l.27-.31H26c.09.09.18.09.27.18s.18.09.27.18.26.09.35.18.18.09.36.18l.09.17.17.18v.36c0 .17 0 .17.09.26l.09.18a.81.81 0 00.09.45c0 .08.09.26.09.35s.09.27.09.36v.44c.09 0 .09-.09.18-.09l.08-.09.09-.09 1-1.24v-.14l.36-.35c.09.09.17 0 .26-.09s.07-.18.07-.27l.22-.11a2 2 0 011.42-1h.18l.09.18c.09.09.18.27.26.36a1.67 1.67 0 00.45.26l.18.09a.33.33 0 01.09.27v.18l.08.18a1.35 1.35 0 01-.26.53l-.36.35-.26.27c-.09.09-.18.18-.18.27l-.09.09a.9.9 0 00-.45.53l-.08.18h-.18l-.11.13a1.17 1.17 0 00-.18.26c-.09.09-.09.18-.18.18l-.09.09v.09a.3.3 0 01-.08.18c-.18.17-.18.26-.27.26s-.09.18-.09.27-.09.18-.09.27-.09.17-.18.26zM46.13 4.27a3.27 3.27 0 00-.89.09c-.27 0-.62.08-.89.08s-.44.09-.62.09a1.14 1.14 0 00-.54.09 2.68 2.68 0 00-.17.62l-.27.54-.27.53a1.41 1.41 0 00-.17.62 2 2 0 01-.27.45c-.09.18-.09.26-.18.44l-.26.54c-.09.17-.09.35-.18.44l-.09.2c-.09.09-.09.09-.09.18a.08.08 0 01-.09.08c0 .09-.09.27-.09.36s0 .09-.09.18v.09c0 .09 0 .17-.09.17v.63l.09.09.09.08c.09 0 .09.09.18.09a.31.31 0 00.18.09l.18.18a.7.7 0 01-.18.71 1.09 1.09 0 01-.8.27h-.18l-.09-.09a.31.31 0 01-.18-.09c-.09 0-.09-.09-.17-.09s-.27-.09-.36-.18l-.18-.09v-.17c-.09-.09-.09-.18-.18-.36s-.08-.27-.08-.35-.09-.18-.09-.27a.31.31 0 00-.09-.18 3.67 3.67 0 01.18-1.53c.17-.44.26-.8.44-1.24.09-.18.18-.45.27-.63a1.61 1.61 0 00.17-.71l.18-.22c.09-.17.18-.26.18-.44s.09-.18.18-.36a.31.31 0 01.09-.17c0-.09.09-.09.09-.18h-.89a.54.54 0 01-.36.09h-.35a.33.33 0 00-.27.09H38c-.09 0-.18-.09-.27-.09-.08-.18-.17-.27-.26-.27l-.18-.18c0-.09 0-.09-.09-.17s0-.09-.09-.18S37 4 37 3.82a3.65 3.65 0 01-.09-.44c0-.09 0-.18.09-.18l.09-.09.09-.27h1.69c.36 0 .71-.08 1.07-.08a1.51 1.51 0 00.62-.09 2.18 2.18 0 00.71-.09c0-.09.09-.18.09-.27l.18-.09a.66.66 0 01.44.09c.09.09.18.09.18.18.27 0 .44-.09.71-.09s.44-.09.71-.09.71-.09 1.07-.18.68-.13 1.03-.13h.45c.18 0 .26 0 .35.09l.18.09c0 .09.09.09.18.18l.18.18a1.87 1.87 0 01.35.44 1.38 1.38 0 01.18.71l-.18.18-.18.18h-.35c-.09 0-.09 0-.18.09a.09.09 0 00-.09.09h-.44z" class="cls-1"></path><path d="M53 10.4a1.7 1.7 0 01-.09.71.94.94 0 01-.35.45c-.18.08-.36.26-.54.26a1.2 1.2 0 01-.53.18c-.09-.09-.18-.09-.27-.18s-.17-.09-.26-.18a2.5 2.5 0 01-.36-.71 1.61 1.61 0 01-.18-.71V10a.53.53 0 01.09-.35c0-.09.09-.27.09-.36v-.13a2.61 2.61 0 00-.8.17l-.8.27c-.26.09-.44.27-.71.36l-.53.26a.7.7 0 01-.09.27.62.62 0 01-.18.35c-.09.09-.09.27-.18.36a.53.53 0 01-.09.36.08.08 0 00.09.08v.09a.46.46 0 00-.35.18c-.09.09-.27.09-.36.18a.64.64 0 01-.44.09 1.28 1.28 0 01-.54-.18c0-.09 0-.09-.08-.18s-.09-.09-.18-.09-.09-.09-.18-.09l-.09-.08c-.09 0-.09 0-.09-.09a.09.09 0 01.09-.09c-.09-.18-.18-.27-.18-.36a1.71 1.71 0 00-.17-.44s0-.09.08-.09v-.18a.09.09 0 01.09-.09H45V10c0-.09 0-.09.09-.18s0-.09.09-.18 0-.09-.09-.18a2.5 2.5 0 00.36-.71 2.18 2.18 0 00.06-.75.49.49 0 00.17-.36c.09-.17.09-.26.18-.44s.09-.27 0-.44a.54.54 0 00-.09-.36c0-.09.09-.09.18-.09.05-.31.05-.71.18-1.15s.09-.89.09-1.25a5.14 5.14 0 01.35-1.07 1.28 1.28 0 01.71-.62c.09.18.18.45.27.62a.9.9 0 00.36.45c.08.18.26.27.35.44s.27.36.36.54a2.21 2.21 0 01-.09.71c0 .26-.09.53-.09.8s-.09.53-.18.8a1.68 1.68 0 00-.09.62c0 .09 0 .09.09.09s.09.09 0 .18c.27-.09.53-.09.8-.18s.53-.09.8-.18.53-.09.8-.18a6.12 6.12 0 00.71-.26c.09-.45.09-.8.18-1.25a2.88 2.88 0 000-1.24c.09 0 .09-.09.09-.18s.09-.09.18-.09a1.49 1.49 0 01-.09-.62c0-.27.09-.45.09-.62l.26-.54a.5.5 0 01.45-.26l.26.53a4.75 4.75 0 01.27.62l.27.54a2.11 2.11 0 00.35.44c0 .27.09.62.09 1v1c-.09.44-.18.8-.27 1.15a5.8 5.8 0 00-.17 1.16c-.09.09-.09.17-.18.26s-.09.18-.09.36-.09.18-.18.35-.09.18-.18.27.09.27 0 .36a2.64 2.64 0 01.3.49zM63.19 3v.54c-.26.35-.44.62-.8.71a3.06 3.06 0 01-1 .26c-.36.09-.72.09-1.07.18a2.73 2.73 0 00-1.07.45c-.18-.09-.26-.09-.35 0a.74.74 0 01-.45.08c-.09.09-.18.09-.26.18s-.18.09-.27.09.09.18.09.27V6h1.24c.45 0 .89-.08 1.34-.08v.17c.08.09.17.09.17.18l.27.27c.09.09.18.18.27.18a.34.34 0 00.26.08c0 .09.09.18.09.27v.27c-.18.09-.35.26-.53.35s-.36.27-.53.36a4.39 4.39 0 01-.63.27 1.88 1.88 0 01-.71.08h-.09s-.09 0-.09-.08c-.08.08-.17.08-.35.08s-.27 0-.36.09a.64.64 0 00-.36-.05.9.9 0 01-.45-.08 2 2 0 00-.44.71c-.09.26-.27.53-.36.8a3.34 3.34 0 00.89.09 1.9 1.9 0 00.71-.09c.18 0 .45-.09.63-.09h.8a5.37 5.37 0 01.71-.27 2.63 2.63 0 00.8-.18.19.19 0 01.18.18c.08.09.08.18.17.18l.18.18A.33.33 0 0062 10a.27.27 0 01.09.17v.18c0 .09 0 .09.08.18a.12.12 0 00.18 0 3.25 3.25 0 01-.53.8 1.9 1.9 0 01-.71.44c-.27.09-.53.18-.89.27s-.71.09-1.07.18h-.44c-.27.09-.53.09-.89.18s-.71.08-1.07.08-.71-.08-1-.08a1.4 1.4 0 01-.8-.45c-.09-.09-.18-.18-.18-.27s-.09-.17-.18-.26a.81.81 0 00-.09-.45 1.08 1.08 0 01-.09-.53c0-.18-.09-.36-.09-.53v-.58c0-.17.09-.26.18-.44a.4.4 0 00.09-.45c.09 0 .09 0 .09-.08a.09.09 0 01.09-.09c.09-.18.09-.36.18-.54a1.76 1.76 0 01.26-.44 2 2 0 01.27-.45l.27-.53a1.7 1.7 0 01-.36-.44c-.09-.18-.09-.36-.18-.54s-.09-.35-.09-.53-.09-.36-.09-.53.27-.27.36-.36l.61-.27c.18-.08.36-.08.63-.17a2.82 2.82 0 00.71-.18 8.17 8.17 0 011.15-.36 3.73 3.73 0 011-.17c.36-.09.62-.09 1-.18a6 6 0 001.15-.18c.09.09.18.18.27.18s.09-.09.18-.09.09 0 .09-.09a.94.94 0 00.44.44 2.15 2.15 0 01.57.16zM77.41 9.33c.09 0 .09.09.09.18v.18c-.18.27-.35.44-.35.53s-.09.18-.18.18a.09.09 0 00-.09.09 1.11 1.11 0 01-.27.18c-.44.26-1 .53-1.42.8a11.91 11.91 0 01-1.6.44 2.11 2.11 0 01-.44.27 5.74 5.74 0 00-.63.18l-.08-.09a.09.09 0 00-.09-.09.19.19 0 01-.18.18.33.33 0 01-.27-.09c-.09-.09-.26-.09-.35-.18a.68.68 0 00-.36-.18c-.09.09-.09.18-.18.27s-.08.18-.17.18a.33.33 0 01-.27-.09c-.09 0-.09 0-.18.09s-.09-.09-.18-.09l-.08-.09-.13-.09c-.09 0-.09-.09-.18-.09v-.18a.19.19 0 00-.18-.18.32.32 0 00-.09-.26.68.68 0 01-.18-.36.51.51 0 01.09-.35c0-.18.09-.18.18-.27s0-.18-.09-.18 0-.09-.09-.18c.09-.08.09-.17.18-.26s.09-.18.09-.27.09-.18.09-.27S70 9.07 70 9a3.93 3.93 0 00.17-.71.81.81 0 00.09-.45c0-.18.09-.26.09-.44a2.15 2.15 0 01.18-.62.81.81 0 01.09-.45.62.62 0 01.22-.33.54.54 0 00.09-.36v-.48a.46.46 0 00-.36.17c-.09.09-.09.18-.09.36a.33.33 0 01-.27.09h-.35a2.35 2.35 0 01-.86-.62 3.79 3.79 0 01-.62-1 1.49 1.49 0 01.44-.62c.18-.18.45-.27.62-.45l.8-.27a2.94 2.94 0 01.8-.17l1.25-.27a6.61 6.61 0 011.33-.09c.09 0 .18-.09.27-.09h.53a.33.33 0 00.27-.09c.09.09.09.09.26.09s.18.09.36.18a.54.54 0 01.36-.09c.08.09.17.09.26.18s.18.09.18.18a.28.28 0 00.18.09l.26.26a1.24 1.24 0 00.36.27l.27.27c.09.08.09.26.09.35s0 .09.08.09.09 0 .09.09a1.54 1.54 0 01-.17.89 1.65 1.65 0 01-.45.62l-.53.53-.54.54c.09.17.27.26.36.35a1.43 1.43 0 01.44.36 1.72 1.72 0 01.45.35 1.72 1.72 0 01.35.45.09.09 0 01.09.09.09.09 0 01.09.09c0 .08.09.17.09.35s.09.18.18.36.09.17.09.26c-.39-.07-.39-.07-.48.02zm-2.75-5.24a4.83 4.83 0 00-1.6.18 3 3 0 00-1.34.53 1.88 1.88 0 00.54.36 1 1 0 01.44.44 3.21 3.21 0 001.07-.6zm.18 5A.45.45 0 0175 8.8c.09-.09.18-.09.27-.18s.18-.09.27-.18a.3.3 0 00.09-.26 6.63 6.63 0 00-.89-.36H74a2 2 0 00-.71.18c-.27.09-.45.09-.72.18-.08.26-.26.62-.35 1s-.27.71-.36 1.06a2.55 2.55 0 00.84-.24l.8-.26a1.7 1.7 0 00.71-.36 3.94 3.94 0 01.63-.31zM86.92 3v.54c-.26.35-.44.62-.8.71a3.06 3.06 0 01-1 .26c-.36.09-.72.09-1.07.18a2.73 2.73 0 00-1.05.47c-.18-.09-.26-.09-.35 0a.74.74 0 01-.45.08c-.09.09-.18.09-.26.18s-.18.09-.27.09.09.18.09.27V6h2.59v.17c.08.09.17.09.26.18s.18.18.18.27.18.18.27.18a.34.34 0 00.26.08c0 .09.09.18.09.27v.27c-.18.09-.35.26-.53.35s-.36.27-.53.36a4.39 4.39 0 01-.63.27 1.88 1.88 0 01-.71.08h-.09s-.09 0-.09-.08c-.08.08-.17.08-.35.08s-.27 0-.36.09a.64.64 0 00-.44-.09.9.9 0 01-.45-.08 2 2 0 00-.44.71 2.67 2.67 0 00-.35.8 3.24 3.24 0 00.88.09 1.9 1.9 0 00.68-.13c.18 0 .45-.09.63-.09h.8a5.37 5.37 0 01.71-.27 2.63 2.63 0 00.8-.18.19.19 0 01.18.18c.08.09.08.18.17.18s.09.09.18.18a.33.33 0 00.27.09.27.27 0 01.09.17v.18c0 .09 0 .09.09.18a.11.11 0 00.17 0 3 3 0 01-.53.8 1.9 1.9 0 01-.71.44c-.27.09-.53.18-.89.27s-.71.09-1.07.18h-.44c-.27.09-.53.09-.89.18s-.71.08-1.07.08-.71-.08-1-.08a1.4 1.4 0 01-.8-.45c-.09-.09-.18-.18-.18-.27s-.09-.17-.18-.26a.81.81 0 00-.09-.45c0-.17-.09-.35-.09-.53s-.09-.36-.09-.53v-.54c0-.17.09-.26.18-.44a.4.4 0 00.09-.45c.09 0 .09 0 .09-.08a.09.09 0 01.09-.09c.09-.18.09-.36.18-.54a2.13 2.13 0 01.31-.44 2 2 0 01.27-.45l.27-.53a1.7 1.7 0 01-.36-.44c-.09-.18-.09-.36-.18-.54s-.09-.35-.09-.53-.08-.36-.08-.53.26-.27.35-.36l.53-.27c.18-.08.36-.08.63-.17a1.67 1.67 0 00.66-.18 8.17 8.17 0 011.15-.36 3.81 3.81 0 011-.17c.36-.09.62-.09 1-.18a6 6 0 001.15-.18c.09.09.18.18.27.18s.09-.09.18-.09.09 0 .09-.09a1 1 0 00.44.44 2 2 0 01.64.16z" class="cls-1"></path><path d="M86.75 4.8a.76.76 0 01.35-.53c.18-.18.36-.27.53-.45a3.53 3.53 0 01.63-.26 1.57 1.57 0 01.62-.18l1.33-.54c.45-.17 1-.26 1.51-.44l1.51-.27a5.67 5.67 0 011.69.18c0 .09.09.18.18.27s.09.18.18.26.09.18.18.27a.36.36 0 01.08.27l.27.26a.4.4 0 010 .45l-.27.27c-.08.08-.17.08-.35.17A5 5 0 0094 4.44c-.44 0-.8.09-1.06.09a.46.46 0 00-.36-.17.84.84 0 00-.44.08c-.18 0-.27.09-.45.09s-.26.09-.44 0a.68.68 0 01-.36.18c-.18 0-.35.09-.53.09V5c.09.09.18.09.27.18s.17.08.35.08.18.09.27.09.18.09.18.27a.79.79 0 01.44.09l.27.27c.09.08.09.17.17.35s.09.27.09.36a.09.09 0 00.09.09.3.3 0 01.18.08c0 .18.09.27.27.45s.26.27.26.44a1.68 1.68 0 00.09.71.79.79 0 01-.09.63 5.83 5.83 0 01-.62 1.06 4 4 0 01-1 .8 4.71 4.71 0 01-1.15.63 11.92 11.92 0 01-1.16.44h-.09s-.08 0 0-.09c-.08.09-.17.09-.26.18H87.9l-.18-.18c-.09-.09-.09-.18-.17-.27s-.09 0-.09-.08 0-.09-.09-.09a.28.28 0 00.09-.18h-.18v-.11c0-.09.09-.18.09-.27v-.71c0-.09.09-.18.26-.26a4 4 0 001 0c.36-.09.62-.18.89-.27a3.59 3.59 0 00.8-.45 3.48 3.48 0 01.8-.35c0-.09.09-.18.18-.27l.18-.18.17-.17a.33.33 0 00.07-.27c0-.09 0-.09-.09-.09a.09.09 0 01-.09-.09l-.17-.09a6.89 6.89 0 00-.71-.26A4.39 4.39 0 0190 7.2c-.08.09-.17.09-.35.09s-.27-.09-.36-.09c-.35 0-.71-.09-1.06-.09l-1-.27c0-.08-.09-.08-.09-.17a.12.12 0 00-.18 0c-.09-.09-.09-.18-.18-.27s-.08-.18-.17-.27a.51.51 0 01.09-.35.33.33 0 00-.09-.27c0-.18.09-.27.09-.35z" class="cls-1"></path><path d="M103 4.27a3.31 3.31 0 00-.89.09c-.27 0-.62.08-.89.08s-.44.09-.62.09a1.1 1.1 0 00-.53.09 2.34 2.34 0 00-.18.62l-.27.54-.26.53a1.29 1.29 0 00-.18.62 2 2 0 01-.27.45c-.09.18-.09.26-.18.44s-.26.36-.26.54-.09.35-.18.44l-.08.2c-.09.09-.09.09-.09.18s0 .08-.09.08-.09.27-.09.36 0 .09-.08.18v.09c0 .09 0 .17-.09.17v.63l.09.09.08.08c.09 0 .09.09.18.09s.09.09.18.09l.18.18a.68.68 0 01-.18.71 1.07 1.07 0 01-.8.27h-.18l-.09-.09a.27.27 0 01-.17-.09c-.09 0-.09-.09-.18-.09s-.27-.09-.36-.18l-.18-.09v-.17c-.08-.09-.08-.18-.17-.36s-.09-.27-.09-.35-.09-.18-.09-.27a.31.31 0 00-.09-.18 3.67 3.67 0 01.18-1.51c.18-.44.26-.8.44-1.24.09-.18.18-.45.27-.63a1.61 1.61 0 00.21-.73l.14-.22c.09-.17.18-.26.18-.44s.09-.18.18-.36a.31.31 0 01.09-.17c0-.09.09-.09.09-.18h-.89a.54.54 0 01-.36.09h-.35a.33.33 0 00-.27.09h-1c-.09 0-.17-.09-.26-.09q-.13-.27-.27-.27l-.18-.18c0-.09 0-.09-.09-.17s0-.09-.09-.18-.08-.18-.08-.36a3.65 3.65 0 01-.09-.44c0-.09 0-.18.09-.18l.08-.09.08-.23h1.69c.36 0 .71-.08 1.07-.08a1.49 1.49 0 00.62-.09 2.15 2.15 0 00.71-.09.33.33 0 00.09-.27l.18-.09a.64.64 0 01.44.09c.09.09.18.09.18.18.27 0 .45-.09.71-.09s.45-.09.71-.09.71-.09 1.07-.18.71-.09 1.07-.09h.46c.18 0 .27 0 .36.09l.17.09c0 .09.09.09.09.18l.18.18a1.89 1.89 0 01.36.44 1.5 1.5 0 01.17.71l-.17.18-.18.18h-.36c-.09 0-.09 0-.18.09a.08.08 0 00-.08.09H103zM110 11.38a.92.92 0 01-.53.71h-.27a.31.31 0 01-.18-.09c-.08 0-.17-.09-.26-.09l-.18-.09c0-.09-.09-.09-.09-.18s-.09-.08-.09-.17-.18-.27-.26-.36a1.22 1.22 0 010-.8 1.6 1.6 0 01.17-.62c0-.09 0-.09.09-.18s0-.09.09-.18a1.93 1.93 0 01-.62-.62 2.8 2.8 0 01-.27-.8.66.66 0 01.18-.44l.27-.27c.09-.09.26-.09.35-.18s.27-.09.36-.09L109 7l.26.27c.09 0 .09-.09.18-.18s.09-.18.09-.27.09-.17.09-.26.09-.18.17-.27 0-.27.09-.35a.31.31 0 00-.26-.09h-.18l-.27-.27c-.09-.09-.09-.18-.17-.18a1.18 1.18 0 00-.27-.35l-.21-.05.09-.18v-.11a.28.28 0 00-.09-.18v-.44a.28.28 0 00.09-.18l.18-.18c.18-.09.44-.09.62-.17a1.62 1.62 0 01.62-.18c.18-.09.45-.09.62-.18s.45-.09.63-.18a.3.3 0 01.26-.09h.46c.09 0 .09 0 .09-.09a1.5 1.5 0 00.44-.17 9.1 9.1 0 011.07-.27 6.8 6.8 0 011.4-.18h.62a.88.88 0 01.89.45c.09.09.18.09.27.17s.17.09.17.18l.09.09.09.09c.18.27.27.53.18.71s-.18.18-.36.27l-.17-.09h-.45a3.34 3.34 0 00-.89.09 4.36 4.36 0 00-1.06.18c-.36.08-.71.08-1.07.17s-.62.18-.89.27l-.27.18a.35.35 0 00-.08.26v.45a1.23 1.23 0 00-.27.8c-.09.09-.09.18-.18.27v.17a1.12 1.12 0 00.53.09c.18 0 .36-.09.54-.09s.53-.09.71-.09.53-.08.8-.08h.53l-.09.08.09.27c.09 0 .09.09.18.09a.09.09 0 01.09.09l.09.18.09.09c0 .08.09.17.09.26l-.63.89-.17.09a.67.67 0 00-.45.09c-.09 0-.18 0-.18.09h-.26c-.18 0-.36.09-.54.09a.79.79 0 00-.44.09c-.18 0-.36.08-.53.08a1.28 1.28 0 00-.54.18h-.44c-.09 0-.18.09-.27.09s-.09.09-.09.18 0 .09-.09.18a.49.49 0 01-.17.35v.27c-.09.09-.09.18-.18.27s0 .08-.09.17a.09.09 0 01-.09.09v.09c-.11-.11-.11.09-.11.27z" class="cls-1"></path><path d="M117.68 10.31a7.1 7.1 0 01-.27 1 8.36 8.36 0 01-.41.69c-.17 0-.26 0-.26.09l-.18.18h-.18l-.09-.09-.09-.09h-.2c0-.09-.09-.18-.09-.27s-.09-.09-.18-.09V11c-.09 0-.09 0-.09-.09a.27.27 0 00-.09-.17c0-.18.09-.36.09-.54a3.65 3.65 0 01.09-.44.81.81 0 00.09-.45.79.79 0 00-.09-.44h.09c0-.09 0-.09.09-.18v-.42a8.92 8.92 0 00.26-.89c.09-.27.09-.54.18-.89s.09-.53.18-.8l.27-.8h.35c.18.09.27.09.27.18a2.15 2.15 0 00.71-.8c.18-.27.44-.63.62-.89a5.74 5.74 0 01.71-.8 1.9 1.9 0 011.07-.36 1.92 1.92 0 00.71.45 1.93 1.93 0 01.62.62.19.19 0 01.18.18l.18.17v.18a.75.75 0 01.26.45 1.2 1.2 0 01.18.53c.09.18.09.36.18.53a1.28 1.28 0 01.18.54v.53a1.89 1.89 0 01-.45 1.16 4.11 4.11 0 01-1 .71 5.57 5.57 0 01-1.25.44 4.38 4.38 0 00-1.15.45.08.08 0 00.08.08s.09 0 0 .09a5.16 5.16 0 00.63.36c.17.09.26.18.44.27s.27.08.45.17a4.93 4.93 0 00.62.18 6.18 6.18 0 01.62.18c.18 0 .27.09.44.09s.27.09.36.09a1.27 1.27 0 01.53.09 1.06 1.06 0 01.27.35c.09.09.09.27.18.36v.35c0 .09-.09.18-.09.27s0 .09.09 0h.09c-.09 0-.09.09-.18.18s-.09.09-.09.17-.09.09-.18.18-.09.09-.26.09a2 2 0 01-1.25 0 11.58 11.58 0 01-1.87-.62c-.35-.18-.71-.27-.88-.36a1.44 1.44 0 01-.63-.35 2.12 2.12 0 01-.44-.36c.02-.44-.16-.53-.42-.71zM120 4.8a1.7 1.7 0 01-.36.44l-.44.45c-.09.18-.27.27-.36.44a4.39 4.39 0 00-.27.63 6.79 6.79 0 001.16-.27 9.92 9.92 0 011.14-.49 1.13 1.13 0 00-.35-.8 2.87 2.87 0 00-.52-.4zM127.27 10.84a.94.94 0 01-.08.72.92.92 0 01-.36.44 1.29 1.29 0 01-.53.18h-.63l-.26-.54a5.37 5.37 0 01-.27-.71 2 2 0 01-.18-.71 1.41 1.41 0 00-.17-.62.73.73 0 00.08-.44v-1.6a5.08 5.08 0 01.36-1.25 6.44 6.44 0 00.36-1.24V4.8c0-.09-.09-.18 0-.27s0-.09.08-.09a.08.08 0 00.09-.08v-.27a.33.33 0 01.09-.27c.09-.09.09-.18.18-.35a1.14 1.14 0 00.09-.54l.27-.26.26-.27c.09-.09.18-.09.27-.18a.66.66 0 01.44-.09.68.68 0 01.18.36c0 .09.09.27.09.35s.09.27.09.36l.27.27v.71a.56.56 0 00.08.35.19.19 0 00.18.18c-.18.53-.35 1-.53 1.51s-.27 1-.45 1.51a9.83 9.83 0 00-.17 1.51c.09.54.09 1.07.17 1.6zM137.94 3v.54a1.27 1.27 0 01-.8.71 3.13 3.13 0 01-1 .26c-.35.09-.71.09-1.06.18a2.67 2.67 0 00-1.07.45.27.27 0 00-.36 0 .71.71 0 01-.44.08c-.09.09-.18.09-.27.18s-.18.09-.26.09.08.18.08.27V6H134c.44 0 .89-.08 1.33-.08v.17c.09.09.18.09.27.18s.18.18.18.27.17.18.26.18a.36.36 0 00.27.08c0 .09.09.18.09.27v.27c-.18.09-.36.26-.53.35s-.36.27-.54.36a4.21 4.21 0 01-.62.27 1.9 1.9 0 01-.71.08h-.09s-.09 0-.09-.08c-.09.08-.18.08-.35.08s-.27 0-.36.09a.66.66 0 00-.44-.09.9.9 0 01-.45-.08 1.82 1.82 0 00-.44.71c-.09.26-.27.53-.36.8a3.31 3.31 0 00.89.09 1.93 1.93 0 00.71-.09c.18 0 .45-.09.62-.09h.8a6.73 6.73 0 01.71-.27 2.51 2.51 0 00.8-.18.19.19 0 01.18.18c.09.09.09.18.18.18l.18.18a.32.32 0 00.26.09.27.27 0 01.09.17v.18c0 .09 0 .09.09.18a.12.12 0 00.18 0 3.56 3.56 0 01-.53.8 2 2 0 01-.71.44c-.27.09-.54.18-.89.27s-.71.09-1.07.18h-.44c-.27.09-.54.09-.89.18s-.71.08-1.07.08-.71-.08-1-.08a1.47 1.47 0 01-.8-.45c-.09-.09-.18-.18-.18-.27s-.08-.17-.17-.26a.81.81 0 00-.09-.45c0-.17-.09-.35-.09-.53s-.09-.36-.09-.53v-.5c0-.17.09-.26.18-.44a.4.4 0 00.09-.45c.09 0 .09 0 .09-.08a.08.08 0 01.08-.09c.09-.18.09-.36.18-.54a2.11 2.11 0 01.27-.44 2 2 0 01.27-.45l.26-.53a1.64 1.64 0 01-.35-.44c-.09-.18-.09-.36-.18-.54s-.09-.35-.09-.53-.09-.36-.09-.53.27-.27.36-.36l.53-.27c.18-.08.36-.08.62-.17a2.63 2.63 0 00.71-.18 8.27 8.27 0 011.16-.36 3.67 3.67 0 011-.17c.35-.09.62-.09 1-.18a6 6 0 001.16-.18c.09.09.18.18.27.18s.09-.09.17-.09.09 0 .09-.09a1 1 0 00.45.44 1.29 1.29 0 01.62.16zM140.87 9.07a.19.19 0 00-.18.17c0 .09-.08.18-.08.27s-.09.18-.09.27-.09.09-.18.09a.31.31 0 01-.09.26l-.18.18a.31.31 0 01-.09.18v.27a.41.41 0 00-.17.26c0 .09-.09.27-.09.36s-.09.18-.09.26-.18.09-.36.09v.09a.09.09 0 00.09.09h-.27c-.08 0-.08.09-.17.09a1.88 1.88 0 01-.54-.36c-.09-.17-.26-.35-.35-.53a4.21 4.21 0 01-.27-.62l-.26-.49v-.4c0-.09-.09-.18-.09-.27.53-1.06 1.06-2.31 1.68-3.55s1.16-2.49 1.78-3.65a2.5 2.5 0 01.71.36 1.7 1.7 0 01.63.44l.53.54a1 1 0 01.27.71.09.09 0 01-.09.09h-.09a.09.09 0 00.09.09v.17a.28.28 0 00.09.18h-.18c0 .09.09.18 0 .27s0 .18-.09.18-.09.08-.09.17v.27h-.09v.18h-.09v2.13c0 .27.09.53.09.8a2.12 2.12 0 00.89-.89 2.69 2.69 0 00.55-1.15 6.65 6.65 0 00.36-1.43c.09-.53.18-1 .27-1.51a.47.47 0 00.17-.35c.09-.18.09-.27.18-.45s.09-.26.09-.44.09-.27.18-.45c.18 0 .26.09.44.18l.27.27.27.27c.08.08.26.08.35.17s.27.36.36.54a1.18 1.18 0 01.17.53.36.36 0 00-.08.27c0 .09-.09.17-.09.35s-.09.18-.09.27-.09.18-.18.27c0 .26-.09.53-.09.71s-.09.44-.18.71a1.7 1.7 0 00-.09.71v.8l-.26.8a2.72 2.72 0 00-.18.71 1.17 1.17 0 00-.36.53 2.48 2.48 0 01-.26.54s-.09.09-.09 0a.09.09 0 01-.09-.09v.35a1.24 1.24 0 00-.36.27l-.35.36a.74.74 0 01-.45.17 2.21 2.21 0 01-.71-.09 13.37 13.37 0 01-1.2-1.06 2.64 2.64 0 01-1.13-1.51zM154.56 7.64v.54a6.35 6.35 0 01-1.16 1.42 6.69 6.69 0 01-1.6 1c-.53.26-1.15.53-1.77.8s-1.25.53-1.78.8a1.41 1.41 0 01-.62-.36c-.09-.18-.27-.35-.27-.53s-.09-.45-.18-.62-.09-.45-.09-.71c0-.09.09-.18.18-.27s.09-.18.09-.36l.27-.8a2.51 2.51 0 00.18-.8.18.18 0 01.17-.17A4.31 4.31 0 00148 6a7.47 7.47 0 00-.26-1.42v-.31c0-.09 0-.09.09-.09h.17a.67.67 0 00-.09-.45c-.09-.09-.09-.35-.17-.53.09-.18.09-.36.17-.44s.09-.27.18-.45a9.18 9.18 0 011.6.62 6.16 6.16 0 001.51.54c.36.26.8.53 1.16.8a4.77 4.77 0 011.06.89 3.89 3.89 0 01.8 1.06 5.54 5.54 0 01.34 1.42zm-3.73.89a4.84 4.84 0 00.62-.26 2.21 2.21 0 00.62-.36 2.34 2.34 0 00.53-.44 1.88 1.88 0 00.36-.54c-.09-.09-.18-.26-.27-.35a1.18 1.18 0 00-.35-.27l-.27-.31a1.06 1.06 0 01-.27-.35c-.17 0-.26-.09-.35-.09s-.18-.09-.27-.18-.18-.09-.35-.18a.59.59 0 00-.36-.08 4.21 4.21 0 01-.62-.27c-.18-.09-.36-.09-.45-.18s-.08 0-.17.09c.09.44.17.8.26 1.16a4.22 4.22 0 01.09 1.08 4.3 4.3 0 01-.09 1.07 7.77 7.77 0 01-.17 1.24.32.32 0 00.26-.09c.09 0 .18-.08.27-.08s.18-.09.27-.09.17-.09.35-.09c0-.09.09-.09.18-.18s.09-.25.18-.25zM169.67 12.09a3.66 3.66 0 01-.89-.71c-.18-.36-.44-.71-.62-1.07 0-.09-.09-.09-.09-.18S168 10 168 10l-.18-.45-.09-.27-.17.18-.27.27-.18.18a5.74 5.74 0 01-.8.71 7.91 7.91 0 01-.89.71 4.63 4.63 0 01-1 .44 4.55 4.55 0 01-1.16.18l-.36-.18-.53-.26a1.43 1.43 0 01-.44-.36c-.09-.09-.09-.18-.18-.27a.3.3 0 01-.09-.26 3 3 0 00-.27-.54 1.18 1.18 0 01-.17-.53 3.75 3.75 0 01.17-.71c.09-.36.18-.71.27-1.16s.18-.88.27-1.24.17-.8.26-1.16a6.08 6.08 0 01.36-.88c.09-.27.27-.63.35-.89a3.81 3.81 0 01.45-.63 2 2 0 01.53-.35l.18.18c.09 0 .09.09.18.09.18.17.26.35.44.53a2.5 2.5 0 00.54.44 4.56 4.56 0 01-.27.89 4.31 4.31 0 01-.36 1c-.17.36-.17.62-.35 1l-.27.8a5.49 5.49 0 00-.18.62 15.21 15.21 0 00-.26 1.6 1.49 1.49 0 00.44-.18 1.72 1.72 0 00.45-.35 1.12 1.12 0 00.44-.45l.53-.53a2 2 0 00.36-.53 3.29 3.29 0 00.35-.63c.09-.17.27-.44.45-.8l.53-.8.53-.8a5.47 5.47 0 01.54-.71 2.29 2.29 0 00.44-.53 1.24 1.24 0 00.36.27 2.31 2.31 0 00.44.26c.09.09.09.18.18.27s.09.18.18.18.09.17.18.26.08.18.17.27a.33.33 0 01-.09.27.56.56 0 01-.08.35c0 .18-.09.27-.09.45s-.09.26-.09.44a7.5 7.5 0 00-.18.89 3.27 3.27 0 01-.09.44v1a.33.33 0 00.09.27c0 .09.09.18.09.27l.62-.54.53-.53a3.59 3.59 0 00.45-.8c.18-.36.27-.62.44-1s.27-.71.45-1.15a11.85 11.85 0 01.71-1.6l.62-1.25a3.32 3.32 0 01.62.45 2.15 2.15 0 01.45.53 1.3 1.3 0 01.26.62 2.57 2.57 0 01.18.8c-.18.36-.35.71-.53 1.16s-.36.8-.53 1.15c-.18.54-.45 1-.63 1.51s-.44 1-.71 1.43a14.18 14.18 0 01-.89 1.24 6 6 0 01-1.15 1c-.09 0-.18-.09-.27-.09-.34-.19-.43-.19-.61-.1zM177.49 10.84a.89.89 0 01-.09.72 1 1 0 01-.35.44 1.28 1.28 0 01-.54.18h-.62l-.27-.54a7.56 7.56 0 01-.26-.71 2 2 0 01-.18-.71 6.18 6.18 0 00-.18-.62.66.66 0 00.09-.44v-1.6a5.08 5.08 0 01.36-1.25 7.2 7.2 0 00.35-1.24V4.8c0-.09-.09-.18 0-.27l.09-.09a.08.08 0 00.09-.08v-.27a.33.33 0 01.09-.27c.09-.09.09-.18.18-.35a1.14 1.14 0 00.09-.54l.26-.26.27-.27c.09-.09.18-.09.26-.18a.67.67 0 01.45-.09.68.68 0 01.18.36c0 .09.09.27.09.35s.08.27.08.36l.27.27v.71a.51.51 0 00.09.35.19.19 0 00.18.18c-.18.53-.36 1-.54 1.51s-.26 1-.44 1.51a8.76 8.76 0 00-.18 1.51c.09.54.09 1.07.18 1.6zM182.56 9.07a.19.19 0 00-.18.17c0 .09-.09.18-.09.27s-.09.18-.09.27-.09.09-.18.09a.31.31 0 01-.09.26l-.17.18a.31.31 0 01-.09.18v.27c-.09.08-.18.17-.18.26s-.09.27-.09.36-.09.18-.09.26-.18.09-.35.09v.09a.09.09 0 00.09.09h-.27c-.09 0-.09.09-.18.09a1.85 1.85 0 01-.53-.36c-.09-.17-.27-.35-.36-.53a3.4 3.4 0 01-.26-.62l-.27-.53V9.6c0-.09-.09-.18-.09-.27.53-1.06 1.07-2.31 1.69-3.55s1.15-2.49 1.78-3.65a2.8 2.8 0 01.71.36 1.75 1.75 0 01.62.44l.53.54a1 1 0 01.27.71.09.09 0 01-.09.09h-.09a.09.09 0 00.09.09v.17a.28.28 0 00.09.18h-.18c0 .09.09.18 0 .27s0 .18-.09.18-.09.08-.09.17v.27h-.08v.18h-.09v2.13c0 .27.09.53.09.8a2.1 2.1 0 00.88-.89 2.71 2.71 0 00.54-1.15 7.3 7.3 0 00.33-1.43c.09-.53.18-1 .27-1.51a.45.45 0 00.18-.35c.09-.18.09-.27.17-.45s.09-.26.09-.44.09-.27.18-.45c.18 0 .27.09.45.18l.26.27.27.27c.09.08.27.08.35.17s.27.36.36.54a1.2 1.2 0 01.18.53.33.33 0 00-.09.27c0 .09-.09.17-.09.35s-.09.18-.09.27-.09.18-.18.27c0 .26-.09.53-.09.71s-.08.44-.17.71a1.7 1.7 0 00-.09.71v.8l-.27.8a2.72 2.72 0 00-.18.71 1.23 1.23 0 00-.35.53l-.27.54s-.09.09-.09 0a.09.09 0 01-.09-.09v.35a1.33 1.33 0 00-.35.27l-.36.36a.71.71 0 01-.44.17 2.15 2.15 0 01-.71-.09 13.55 13.55 0 01-1.16-1.06 3.64 3.64 0 01-1.13-1.51zM190.82 10a.33.33 0 00.09.27.33.33 0 00.09.27c0 .09-.09.18-.09.35s-.09.18-.09.27-.09.09-.09.18v.26l-.09.18-.17.18a.31.31 0 00-.18.09 814225355865.45 814225355865.45 0 00-.18.18l-.09.17h-.18a4.13 4.13 0 00-.44.09h-.18c-.09-.09-.26-.17-.26-.26s-.18-.09-.27-.18-.18-.27-.18-.36 0-.09-.09-.17a.39.39 0 00-.09-.27l-.17-.18.17-.18-.17-.26c.08-.09.17-.18.26-.18s.09-.09.18-.09.09-.09.18-.18a1.14 1.14 0 00.26-.35l.18-.18.18.09a.39.39 0 00.27.09c.17 0 .26.09.35.09a1.27 1.27 0 00.54.08.46.46 0 01.35.18zM98.74 16c-2.75-1.07-18.13-.89-28.35-.62a6.75 6.75 0 00-1.33.18c-.09 0-.27 0-.27-.09-.18-.54.54-.89 2.76-1.16 5.15-.62 17.86-.8 19.46-.89 2.22-.09 7.47-.09 8 1.16a2.58 2.58 0 01.18 1.24c0 .18-.27.18-.45.18z" class="cls-1"></path></svg>