<svg xmlns="http://www.w3.org/2000/svg" viewBox="0 0 80 24" class="svg svg--logo {{ classList | default('') }}" aria-hidden="true" focusable="false"><path d="M.62 10.59C.44 7.5.18 4.41 0 1.24 2.2 1.06 4.41 1 6.7.88c0 .71.09 1.5.09 2.21l-4 .26c0 .53.09 1.06.09 1.59 1.12-.09 2.24-.09 3.29-.18 0 .62.09 1.33.09 2C5.2 6.88 4.15 6.88 3 7c.09 1.15.18 2.29.18 3.44a23 23 0 01-2.56.15zM8.11 10.24C7.94 7.06 7.85 4 7.67.79c1.5-.08 3-.17 4.5-.17a3.33 3.33 0 013.44 3.09 3.31 3.31 0 01-1.32 2.73c.79 1.15 1.5 2.21 2.29 3.35-1 0-1.94.09-3 .09C13 8.91 12.26 8 11.64 7.06a3.55 3.55 0 00-1 .09c.09 1 .09 1.94.18 2.91-.94.09-1.82.09-2.71.18zm2.39-5.3c.52 0 1.14-.09 1.67-.09.35 0 .62-.44.62-1.06a.9.9 0 00-.8-1c-.52 0-1.05.09-1.58.09a16 16 0 01.09 2.06zM17.38 9.79c-.09-3.08-.27-6.26-.36-9.35.88 0 1.77-.09 2.65-.09.09 3.09.17 6.27.26 9.36-.79 0-1.67.08-2.55.08zM28.49 7.24v2.2c-2.3 0-4.59.09-6.79.18L21.43.26c2.3-.08 4.5-.08 6.79-.17v2.2c-1.41 0-2.73.09-4.14.09v1.33c1.14 0 2.38-.09 3.53-.09v2.12c-1.15 0-2.3.08-3.53.08v1.5c1.59 0 3-.08 4.41-.08zM32.28 4.85c0 1.5 0 3.09.09 4.59h-2.65c-.09-3.09-.09-6.26-.17-9.35h2.11l4 4.76V.09h2.65v9.35h-2.15c-1.23-1.59-2.56-3.09-3.88-4.59zM40 9.35V0h3.71a4.47 4.47 0 014.85 4.76c0 2.83-1.94 4.68-4.94 4.68-1.2-.09-2.43-.09-3.62-.09zm3.71-7.06H42.6v4.86h1.06a2.2 2.2 0 002.2-2.47 2.18 2.18 0 00-2.2-2.39zM55.48 3.26a6 6 0 00-2.56-.88c-.44 0-.79.09-.79.44 0 .53.7.62 1.76 1 1.76.62 2.91 1.24 2.82 3-.09 2.3-1.94 2.92-3.7 2.92a9.39 9.39 0 01-4.15-1.15c.35-.71.8-1.5 1.15-2.21a6.65 6.65 0 003.09 1.03c.52 0 .79-.17.79-.35 0-.53-1-.71-2.12-1.06-1.67-.62-2.47-1.32-2.38-2.65 0-2.11 1.76-3.17 3.71-3.09a8.32 8.32 0 013.61 1.06 19.3 19.3 0 00-1.23 1.94zM66.77.53c-.09 3.09-.27 6.26-.36 9.35-.88 0-1.76-.09-2.64-.09.09-1.23.09-2.47.17-3.7h-3.35c0 1.23-.09 2.47-.09 3.7-.88 0-1.76-.08-2.64-.08.14-3.09.14-6.27.26-9.36.88 0 1.77.09 2.65.09 0 1.15-.09 2.3-.09 3.44 1.06 0 2.21.09 3.26.09C64 2.82 64 1.68 64 .53zM68 10c.18-3.09.27-6.26.44-9.35.88 0 1.77.09 2.65.09-.18 3.08-.27 6.26-.44 9.35A26 26 0 0168 10zM72.23 10.24c.18-3.09.36-6.27.45-9.36l4.23.27A3.31 3.31 0 0180 4.59a3.26 3.26 0 01-3.36 3.09c-.53 0-1-.09-1.58-.09-.09 1-.09 1.94-.18 2.91a13.16 13.16 0 00-2.65-.26zm2.91-5c.45 0 1 .08 1.42.08s.7-.17.7-1-.35-1.06-.7-1.06-.89-.08-1.33-.08a14.73 14.73 0 01-.09 2.03zM10 23.47l-.3-6.09c-.62 1.5-1.14 2.91-1.76 4.41-.53 0-1.15.09-1.68.09-.7-1.41-1.5-2.82-2.2-4.14.09 2 .26 4.05.35 6.08-1.06.09-2.12.09-3.18.18C1 20.12.79 16.32.53 12.44c1.15-.09 2.38-.18 3.53-.18 1 1.77 1.85 3.53 2.82 5.3.79-1.85 1.5-3.71 2.29-5.56 1.15-.09 2.38-.09 3.53-.18.18 3.89.35 7.77.53 11.56-1.15 0-2.23 0-3.23.09zM14 23.29c1.33-3.88 2.56-7.85 3.88-11.73.89 0 1.77-.09 2.65-.09 1.59 3.79 3.18 7.68 4.67 11.47-1.14 0-2.2.09-3.35.09-.26-.71-.53-1.5-.79-2.21-1.06 0-2 .09-3.09.09-.17.8-.44 1.5-.61 2.3-1.04 0-2.19 0-3.36.08zm5.38-8.55c-.35 1.32-.61 2.64-1 3.88.71 0 1.41-.09 2.12-.09-.3-1.15-.74-2.47-1.1-3.79zM26.11 22.85c-.09-3.88-.18-7.76-.27-11.56 1.5 0 3-.08 4.59-.08 4-.09 6 2.55 6 5.73a5.58 5.58 0 01-5.83 5.91zm4.32-8.91h-1.32c0 2 .08 4.06.08 6h1.33c1.67 0 2.64-1.32 2.55-3.09a2.58 2.58 0 00-2.64-2.91zM41 17v5.73h-3.16V11.21h2.55c1.59 1.94 3.18 4 4.68 5.91 0-1.94 0-4 .09-5.91h3.26c-.09 3.88-.09 7.76-.18 11.55h-2.55C44.1 20.82 42.6 18.88 41 17zM58.56 20.21c0 .88-.08 1.85-.08 2.73-2.74-.09-5.47-.18-8.3-.18.09-3.88.09-7.76.18-11.55 2.74.08 5.56.08 8.29.17 0 .88-.09 1.86-.09 2.74-1.67-.09-3.35-.09-5-.09v1.68c1.41 0 2.82.08 4.23.08 0 .89-.09 1.68-.09 2.56-1.41 0-2.82-.09-4.23-.09v1.86c1.65 0 3.33.09 5.09.09zM67.21 15.53a6.81 6.81 0 00-3.09-1.15c-.53 0-1 .09-1 .53 0 .62.79.8 2.12 1.24 2.11.79 3.44 1.59 3.35 3.7-.09 2.83-2.38 3.62-4.59 3.53a12.36 12.36 0 01-5-1.5c.53-.88 1-1.85 1.5-2.73a8.79 8.79 0 003.71 1.41c.7 0 1-.18 1-.44 0-.71-1.15-.88-2.56-1.41-2-.8-2.91-1.68-2.82-3.36.09-2.56 2.2-3.88 4.5-3.79A11.87 11.87 0 0168.71 13c-.53.76-.97 1.65-1.5 2.53zM77.44 16.06a7.7 7.7 0 00-3.09-1.24c-.53 0-1 .09-1 .53 0 .62.79.8 2.12 1.24 2.11.79 3.44 1.59 3.35 3.79-.18 2.83-2.47 3.53-4.68 3.44a10.45 10.45 0 01-4.93-1.58c.52-.89 1-1.86 1.49-2.74a8 8 0 003.74 1.5c.7 0 1-.18 1-.44 0-.71-1.15-.88-2.56-1.41-2-.8-2.91-1.68-2.82-3.36.09-2.55 2.29-3.79 4.59-3.7a9.62 9.62 0 014.32 1.5 16.36 16.36 0 00-1.53 2.47z"></path></svg>