<svg xmlns="http://www.w3.org/2000/svg" viewBox="0 0 60 17" class="svg svg--logo {{ classList | default('') }}" aria-hidden="true" focusable="false"><path d="M1.91 17Q1 9.47 0 1.93c3.7-.46 7.42-.84 11.13-1.14l.3 3.62C9.23 4.59 7 4.8 4.84 5c.1.84.19 1.67.28 2.51 1.76-.19 3.53-.36 5.3-.51l.29 3.37c-1.74.15-3.49.31-5.23.5.2 1.87.41 3.74.61 5.61-1.39.18-2.79.35-4.18.52zM25.46 15.25l-.19-8Q24 10.1 22.82 13c-.76 0-1.51.05-2.27.09-.94-1.84-1.91-3.67-2.89-5.49.15 2.66.29 5.32.44 8-1.4.07-2.79.16-4.19.27Q13.35 8.24 12.79.66C14.41.54 16 .44 17.67.35c1.3 2.32 2.56 4.64 3.79 7Q23 3.69 24.71.07C26.33 0 28 0 29.57 0l.09 15.18c-1.4.01-2.8.03-4.2.07zM30.81 15.18Q33.66 7.59 36.88.07c1.21 0 2.42.06 3.63.11q2.73 7.71 5.09 15.46c-1.48-.09-3-.17-4.44-.23-.26-1-.53-2-.8-3-1.37-.06-2.75-.1-4.12-.13-.33 1-.65 2-1 3-1.46-.09-2.94-.1-4.43-.1zm7.75-10.72q-.83 2.52-1.62 5l2.85.09q-.6-2.55-1.23-5.09z"></path><path d="M45.26 15.62q3.32-7.39 7-14.71l3.61.34Q58.13 9.11 60 17c-1.47-.18-2.94-.36-4.41-.51-.2-1-.41-2-.62-3.06-1.37-.14-2.74-.26-4.11-.38-.39 1-.77 1.92-1.15 2.89-1.49-.12-2.97-.23-4.45-.32zM53.67 5.4q-1 2.46-1.93 4.94l2.83.26c-.29-1.73-.57-3.47-.9-5.2z"></path></svg>